<?xml version="1.0" encoding="UTF-8"?><svg id="Capa_2" xmlns="http://www.w3.org/2000/svg" viewBox="0 0 383.12 284.18"><defs><style>.cls-1{fill:#febdbc;}.cls-1,.cls-2{stroke-width:0px;}.cls-2{fill:#030388;}</style></defs><g id="Capa_1-2"><path class="cls-2" d="M383.12,189.24c-1.2.43-.99,1.65-1.26,2.5-4.61,14.72-16.53,23.61-32.15,23.64-32.17.07-64.35.07-96.52-.06-3.08-.01-4.93.94-6.79,3.33-15.65,20.19-31.43,40.28-47.18,60.4-1.45,1.85-2.78,3.81-5.21,4.64-3.48,1.2-6.27.24-9.29-3.61-13.16-16.76-26.29-33.54-39.43-50.32-.61-.78-1.21-1.58-1.84-2.36-3.2-3.96-5.67-9.45-9.82-11.44-4.17-2-10.01-.55-15.11-.55-27.81-.01-55.62,0-83.42,0C13.61,215.4,0,201.84,0,180.46c0-48.5,0-97.01,0-145.51C0,13.53,13.58,0,35.06,0,139.06,0,243.06,0,347.06,0c19.38,0,29.88,7.85,35.49,26.5.05.17.37.26.57.38v162.36ZM191.72,14.97c-52.38,0-104.76,0-157.14,0-12.64,0-19.6,6.99-19.61,19.69,0,48.63,0,97.27,0,145.9,0,12.91,6.93,19.87,19.83,19.87,33.42,0,66.85.06,100.27-.07,4.42-.02,7.46,1.4,10.16,4.9,14.63,18.93,29.49,37.69,44.14,56.62,1.9,2.45,2.63,2.24,4.41-.06,14.42-18.62,29.06-37.08,43.43-55.75,3.1-4.02,6.48-5.78,11.65-5.75,33.17.2,66.35.11,99.52.1,12.85,0,19.77-6.99,19.77-19.93,0-48.63,0-97.27,0-145.9,0-12.65-7-19.63-19.67-19.63-52.25,0-104.51,0-156.76,0Z"/><path class="cls-1" d="M133.26,91.99c.57,7-3.02,12.73-7.86,17.8-9.55,9.99-19.23,19.85-28.85,29.77-.43.45-.89.87-1.3,1.34-5.77,6.55-6.57,6.62-12.74.23-10.8-11.19-21.58-22.41-32.24-33.73-7.76-8.24-8.1-21.35-1.01-30.52,7.76-10.04,19.44-13.13,29.34-7.7,2.74,1.5,5.28,3.38,7.22,5.83,2.22,2.8,3.96,3.04,6.32.09,3-3.75,6.83-6.5,11.57-7.78,8.55-2.31,18.38,1.15,23.93,8.42,4.13,5.4,5.63,9.61,5.64,16.26Z"/><path class="cls-2" d="M263.5,111.08c0,5.98.17,11.96-.03,17.93-.51,15.25-13.17,27.32-28.49,27.32-15.31,0-28.14-12.1-28.48-27.31-.27-12.2-.28-24.42,0-36.61.36-14.96,13.14-27.04,28.27-27.18,15.2-.15,28.14,12.02,28.68,27.17.22,6.22.04,12.45.04,18.68ZM248.59,111.11c0-5.48,0-10.96,0-16.44,0-.25,0-.5,0-.75-.24-7.89-6.22-13.85-13.78-13.73-7.47.12-13.34,5.96-13.41,13.68-.11,11.21-.1,22.42,0,33.63.07,7.98,5.92,13.85,13.56,13.86,7.64.01,13.47-5.84,13.62-13.81.1-5.48.02-10.96.03-16.44Z"/><path class="cls-2" d="M302.74,94.28c9.5-8.74,18.19-16.73,26.88-24.73,1.28-1.18,2.53-2.42,4.24-2.97,3.17-1.02,6.75.22,8.57,2.95,1.87,2.79,1.64,6.7-.9,9.27-3.15,3.19-6.52,6.16-9.82,9.19-6.97,6.41-13.87,12.89-20.97,19.16-1.98,1.75-1.67,2.64.03,4.26,10.73,10.23,21.36,20.57,32.04,30.85,1.94,1.86,3.65,3.83,3.56,6.69-.1,3.13-1.6,5.46-4.49,6.74-3.08,1.37-5.89.71-8.27-1.53-4.18-3.93-8.42-7.8-12.34-11.97-5.63-5.98-11-12.21-16.78-18.06-2.28,1.67-1.72,2.79-1.73,3.66-.05,6.48,0,12.96-.04,19.44-.05,5.78-2.9,9.14-7.59,9.1-4.56-.04-7.37-3.31-7.37-8.89-.03-24.54,0-49.09-.02-73.63,0-3.52,1.07-6.39,4.45-7.93,2.9-1.31,5.61-.76,8,1.26,2.2,1.86,2.55,4.44,2.55,7.13,0,6.32,0,12.64,0,19.99Z"/><path class="cls-2" d="M188.37,111.01c0,11.22.01,22.45-.02,33.67,0,1.49-.05,3.01-.38,4.45-.85,3.68-4.03,5.96-7.69,5.7-3.64-.26-6.58-2.97-6.77-6.74-.22-4.48-.12-8.97-.12-13.46,0-16.34-.12-32.67.09-49.01.04-3.44-.99-4.45-4.19-4.01-1.47.2-2.99.09-4.48-.01-3.84-.26-6.62-2.9-6.97-6.52-.37-3.78,1.62-7.28,5.34-7.87,6.52-1.03,13.18-1.08,19.7.02,3.84.65,5.47,3.69,5.49,8.62.03,11.72.01,23.44.01,35.17Z"/></g></svg>