<?xml version="1.0" encoding="UTF-8"?><svg id="Capa_2" xmlns="http://www.w3.org/2000/svg" viewBox="0 0 383.04 382.7"><defs><style>.cls-1{fill:#a3fac3;}.cls-1,.cls-2{stroke-width:0px;}.cls-2{fill:#050589;}</style></defs><g id="Capa_1-2"><path class="cls-2" d="M197.54,0c7.96.65,10.18,1.25,15.25,2.06,47.23,7.54,82.55,32.11,106.13,73.71,7.67,13.53,11.91,28.39,17.36,42.79,11.41,30.15,25.51,59.12,39.01,88.36,2.03,4.4,4.1,8.79,6.01,13.25,5.82,13.62-3.55,28.92-18.33,29.92-3.35.23-6.74.31-10.09.1-2.71-.17-3.61.51-3.57,3.42.19,11.84.15,23.69.07,35.53-.03,5.12-.81,10.19-2.3,15.1-3.84,12.6-13.21,18.36-25.51,20.52-8.65,1.52-17.42.68-26.11,1.47-2.72.25-5.47.51-8.13,1.09-13.84,3.01-20.56,11.14-22.44,26.59-.78,6.45-.92,12.93-1.1,19.4-.18,6.79-2.63,9.36-9.28,9.36-52.75.03-105.49.03-158.24,0-6.4,0-9-2.63-9.08-9.17-.22-18.09-1.06-36.12-3.3-54.09-3.53-28.3-10.57-55.67-21.6-82.78-3.14,3.24-6.04,6.28-8.99,9.27-4.65,4.7-9.31,9.38-14.01,14.03-12.8,12.64-30.98,9-38.04-7.58-.26-.62-.26-1.53-1.23-1.69v-10.48c2.41-7.68,8.25-12.75,13.69-18.16,9.8-9.76,19.55-19.57,29.37-29.32,1.33-1.32,1.99-2.38,1.38-4.5-6.89-23.83-6.97-47.84-1.84-72.02C55.98,53.1,106.65,11.5,166.21,2.21c5.2-.81,5.43-1.08,15.61-2.21h2.24c4.24.96,8.48,1.03,12.72,0h.75ZM98.76,154.81c4.34,1.82,7.83,4.75,11.07,8.09,4.77,4.92,9.73,9.66,14.49,14.59,1.49,1.54,2.4,1.94,4.14.17,11.2-11.36,22.51-22.62,33.83-33.87,1.3-1.29,1.59-1.89-.11-3.31-7.76-6.46-10.24-15.64-7.03-24.88,3.17-9.11,10.79-14.78,21.08-14.97,12.83-.24,25.68-.3,38.52,0,12.72.3,22.22,9.71,22.39,21.94.19,13.21.15,26.43,0,39.64-.11,9.43-5.98,17.24-14.89,20.37-9.06,3.19-18.43.96-24.38-6.35-2.08-2.55-2.96-1.69-4.68.05-12.46,12.57-25.01,25.06-37.5,37.6-4.12,4.14-8.16,8.37-12.24,12.56-.32.19-.67.34-.95.58-11.11,9.45-22.99,9.04-33.24-1.18-5.21-5.19-10.53-10.28-15.54-15.66-2.03-2.18-3.07-1.81-4.88.12-4,4.28-8.15,8.42-12.43,12.42-1.89,1.77-2.31,3.2-1.26,5.73,6.95,16.8,12.73,33.99,16.91,51.7,6.5,27.52,9.5,55.46,9.84,83.7.04,3.08.93,3.95,4.03,3.92,16.21-.16,32.41-.07,48.62-.07,30.3,0,60.59-.03,90.89.06,2.71,0,3.78-.6,3.67-3.48-.21-5.37.53-10.7,1.56-15.97,3.29-16.94,12.05-29.22,29.22-34.43,7.6-2.31,15.38-2.89,23.25-3.05,6.84-.14,13.72.03,20.41-1.85,5.01-1.41,8.15-4.58,9.4-9.62.97-3.89,1.46-7.84,1.47-11.84.05-14.21.04-28.42.06-42.64.01-7.09,2.53-9.59,9.73-9.61,5.36-.02,10.72.06,16.08-.02,6.64-.1,9.4-4.48,6.64-10.52-4.91-10.74-9.92-21.44-14.83-32.18-12.72-27.81-25.69-55.5-35.4-84.58-9.24-27.69-24.86-50.97-48.76-68.08-28.09-20.1-59.63-27.34-93.76-23.58-29.97,3.3-56.51,14.75-78.61,35.37-30.24,28.21-42.59,63.81-41.45,104.54.2,7.24,1.14,14.49,3.42,22.03,5.55-5.57,10.89-10.61,15.87-15.99,7.04-7.61,15.41-10.1,25.37-7.45ZM222.22,142.41c0-6.11.04-12.22-.01-18.33-.05-5.5-2.74-8.3-8.22-8.48-3.74-.12-7.48-.03-11.22-.03-8.73,0-17.46-.14-26.18.07-5.79.14-9.12,4.77-7.37,9.9,1.33,3.89,4.5,5.04,8.31,4.96,3.7-.07,6.6,1.25,8,4.88,1.4,3.65-.07,6.44-2.66,9.03-16.69,16.63-33.33,33.32-50.01,49.96-4.56,4.54-8.26,4.49-12.89-.1-7.25-7.21-14.46-14.45-21.7-21.68-5.21-5.2-8.73-5.22-13.92-.03-21.87,21.86-43.73,43.72-65.59,65.59-.7.7-1.46,1.37-2.07,2.16-1.9,2.48-2.39,5.22-.91,8.05,1.54,2.95,4.13,4.14,7.42,4,2.63-.11,4.26-1.79,5.95-3.48,18.51-18.52,37.01-37.04,55.53-55.54,4.75-4.75,8.42-4.76,13.15-.05,7.25,7.21,14.46,14.46,21.69,21.68,5.21,5.2,8.67,5.18,13.93-.08,19.93-19.92,39.87-39.82,59.74-59.79,2.7-2.71,5.61-4.28,9.34-2.79,3.76,1.5,4.78,4.66,4.76,8.49-.03,4.87,3.01,8.16,7.26,8.27,4.37.1,7.59-3.32,7.64-8.31.06-6.11.02-12.22.02-18.33Z"/><path class="cls-2" d="M196.79,0c-4.24,1.03-8.48.96-12.72,0h12.72Z"/><path class="cls-1" d="M98.76,154.81c-.94-16.9,2.39-32.89,10.5-47.76,8.18-15,19.64-26.8,34.38-35.67,16.82-10.12,35.11-13.14,54.12-11.34,18.83,1.78,35.59,9.16,49.94,21.83,14.94,13.2,24.67,29.45,28.59,48.89,5.46,27.13.26,52-17.32,73.83-15.73,19.53-36.29,30.84-60.96,33.8-18.79,2.25-36.96-.96-53.5-10.91-.41-.24-.7-.68-1.05-1.02,4.08-4.19,8.11-8.41,12.24-12.55,12.49-12.54,25.04-25.02,37.5-37.6,1.73-1.74,2.6-2.6,4.68-.05,5.95,7.3,15.33,9.53,24.38,6.35,8.9-3.13,14.78-10.93,14.89-20.37.15-13.21.18-26.43,0-39.64-.17-12.23-9.67-21.64-22.39-21.94-12.83-.3-25.68-.25-38.52,0-10.3.2-17.91,5.86-21.08,14.97-3.21,9.24-.74,18.42,7.03,24.88,1.7,1.42,1.41,2.02.11,3.31-11.32,11.25-22.63,22.51-33.83,33.87-1.74,1.77-2.65,1.37-4.14-.17-4.76-4.93-9.72-9.67-14.49-14.59-3.24-3.34-6.73-6.28-11.07-8.09Z"/></g></svg>