<?xml version="1.0" encoding="UTF-8"?><svg id="Capa_2" xmlns="http://www.w3.org/2000/svg" viewBox="0 0 383.57 333.45"><defs><style>.cls-1{fill:#febcbb;}.cls-1,.cls-2{stroke-width:0px;}.cls-2{fill:#050589;}</style></defs><g id="Capa_1-2"><path class="cls-1" d="M383.57,249.07c-1.21,5.27-2.19,10.61-3.67,15.81-7.11,25.06-22.36,43.79-44.83,56.66-11.35,6.5-23.67,10.06-36.72,11.4-23.68,2.42-44.96-3.77-64.15-17.44-11.99-8.54-21.48-19.4-28.22-32.57-.84-1.64-1.84-3.21-2.77-4.81-1.73-5.01-3.46-10.01-5.19-15.02-2.21-8.73-2.21-17.63-2.41-26.57-.33-14.49,3.67-27.89,10.03-40.54,8.97-17.82,22.77-31.14,40.4-40.52,7.96-4.24,16.44-7.09,25.23-8.6,8.51-1.46,17.09-2.37,25.9-1.33,5.79.68,11.43,2.2,17.24,2.54,4.66,1.93,9.33,3.85,14.26,5.02,6.16,4.15,12.93,7.32,18.76,12.02,18.83,15.2,30.61,34.51,34.8,58.44.44,2.51-.09,5.23,1.35,7.56v17.96ZM238.21,239.25c0,4.36-.01,8.72,0,13.08.02,7.42,2.34,9.71,9.9,9.74,5.23.02,10.47.1,15.7-.04,2.33-.07,2.99.77,2.94,3.02-.13,5.6-.07,11.21-.03,16.82.04,5.95,2.67,8.7,8.67,8.77,9.35.11,18.69.1,28.04,0,6.07-.06,8.85-2.96,8.9-9.03.05-5.61.09-11.22-.03-16.82-.05-2.11.61-2.81,2.74-2.76,5.61.13,11.22.09,16.82.03,6.19-.07,8.92-2.79,8.95-8.9.04-9.22.04-18.44,0-27.67-.03-6.14-2.78-8.96-8.86-9.04-5.23-.07-10.49-.28-15.7.08-3.51.24-4.14-1.05-4-4.19.25-5.35.15-10.72.04-16.07-.11-5.21-2.94-8.26-8.07-8.34-9.84-.15-19.69-.14-29.53,0-5.2.08-7.93,3.07-7.99,8.31-.06,5.23-.24,10.48.06,15.7.21,3.51-.65,4.83-4.41,4.59-5.34-.35-10.71-.19-16.07-.05-5.3.13-7.99,2.91-8.08,8.19-.08,4.86-.02,9.72-.02,14.58Z"/><path class="cls-2" d="M328.66,153.09c-4.93-1.17-9.6-3.09-14.26-5.02,8.97-21.94,10.98-44.71,6.8-67.85-4.19-23.2-16.07-41.67-36.83-53.62-19.14-11.02-39.84-13.92-61.37-9.89-20.83,3.9-36.53,15.2-46.03,34.45-1.7,3.45-3.65,6.35-7.92,6.28-4.08-.07-5.97-2.88-7.59-6.21-7.3-15.04-18.83-25.51-34.49-31.32-14.26-5.3-28.98-6.13-43.82-3.51-29.56,5.22-51.23,20.88-61.74,49.58-9.21,25.17-7.69,50.67.44,75.89,7.45,23.1,22.3,41.18,39.63,57.52,32.66,30.79,68.76,57.15,105.68,82.47,1.65,1.13,2.77.97,4.26-.09,8.84-6.26,17.72-12.46,26.59-18.68,1.73,5.01,3.46,10.01,5.19,15.02-9.57,6.51-19.16,12.99-28.7,19.55-3.32,2.28-6.53,2.71-10.02.37-40.28-27.06-79.44-55.54-114.63-89.13-16.91-16.14-31.62-33.91-39.95-56.13-11.97-31.94-14.12-64.31-.7-96.17C22.67,24.63,48.06,6.95,81.94,1.46c19.71-3.19,39-1.33,57.3,7.31,11.44,5.4,18.63,11.56,29.99,25.61,1.15-1.47,2.26-2.9,3.39-4.32C186.54,12.69,204.96,3.46,226.75.93c24.65-2.87,47.94,1.46,68.94,15.22,23.23,15.23,36.31,37.17,40.69,64.28,4.02,24.84,1.44,49.14-7.72,72.66Z"/><path class="cls-2" d="M238.21,239.25c0-4.86-.06-9.72.02-14.58.09-5.28,2.78-8.06,8.08-8.19,5.36-.13,10.73-.29,16.07.05,3.76.24,4.62-1.08,4.41-4.59-.31-5.22-.13-10.46-.06-15.7.06-5.24,2.79-8.23,7.99-8.31,9.84-.15,19.69-.15,29.53,0,5.13.08,7.96,3.13,8.07,8.34.11,5.36.21,10.73-.04,16.07-.15,3.13.49,4.42,4,4.19,5.21-.35,10.46-.15,15.7-.08,6.08.08,8.83,2.9,8.86,9.04.04,9.22.04,18.44,0,27.67-.03,6.11-2.76,8.82-8.95,8.9-5.61.07-11.22.1-16.82-.03-2.14-.05-2.79.65-2.74,2.76.12,5.61.08,11.22.03,16.82-.05,6.08-2.83,8.97-8.9,9.03-9.35.1-18.69.11-28.04,0-6.01-.07-8.63-2.82-8.67-8.77-.04-5.61-.1-11.22.03-16.82.05-2.25-.61-3.08-2.94-3.02-5.23.15-10.47.06-15.7.04-7.56-.02-9.88-2.31-9.9-9.74-.01-4.36,0-8.72,0-13.08ZM297.37,264.09c0-2.62-.02-5.23,0-7.85.05-6.45,2.61-9.1,9.03-9.17,5.48-.07,10.97-.09,16.45.02,2.13.05,3.22-.34,3.06-2.83-.21-3.35-.17-6.73-.01-10.09.1-2.12-.62-2.83-2.74-2.79-5.85.11-11.71.12-17.57,0-5.56-.11-8.16-2.81-8.21-8.39-.06-5.86-.07-11.71.02-17.57.03-1.92-.56-2.67-2.55-2.6-3.48.12-6.98.15-10.46,0-2.15-.1-2.79.66-2.74,2.76.12,5.6.08,11.21.03,16.82-.05,6.17-2.73,8.92-8.85,9-5.48.07-10.97.1-16.45-.02-2.28-.05-3.46.37-3.25,3.04.25,3.22.19,6.48.01,9.71-.13,2.27.55,3.04,2.91,2.97,5.35-.17,10.71-.09,16.07-.04,6.83.05,9.54,2.76,9.57,9.5.02,5.48.05,10.96-.02,16.45-.02,1.77.25,2.8,2.4,2.71,3.61-.15,7.23-.12,10.84,0,2.01.06,2.57-.77,2.5-2.66-.12-2.99-.03-5.98-.03-8.97Z"/><path class="cls-1" d="M297.37,264.09c0,2.99-.09,5.98.03,8.97.08,1.88-.48,2.72-2.5,2.66-3.61-.11-7.23-.14-10.84,0-2.15.09-2.43-.94-2.4-2.71.08-5.48.05-10.96.02-16.45-.03-6.75-2.74-9.45-9.57-9.5-5.36-.04-10.72-.13-16.07.04-2.35.07-3.03-.7-2.91-2.97.18-3.23.23-6.49-.01-9.71-.2-2.68.98-3.09,3.25-3.04,5.48.12,10.96.1,16.45.02,6.12-.08,8.8-2.83,8.85-9,.04-5.61.09-11.22-.03-16.82-.05-2.11.59-2.86,2.74-2.76,3.48.16,6.98.13,10.46,0,1.99-.07,2.58.68,2.55,2.6-.09,5.85-.08,11.71-.02,17.57.06,5.58,2.65,8.28,8.21,8.39,5.85.12,11.71.1,17.57,0,2.12-.04,2.83.67,2.74,2.79-.15,3.36-.2,6.74.01,10.09.16,2.48-.93,2.88-3.06,2.83-5.48-.12-10.96-.09-16.45-.02-6.42.08-8.99,2.73-9.03,9.17-.02,2.62,0,5.23,0,7.85Z"/></g></svg>