<?xml version="1.0" encoding="UTF-8"?><svg id="Capa_2" xmlns="http://www.w3.org/2000/svg" viewBox="0 0 383.86 314.23"><defs><style>.cls-1{fill:#050489;}.cls-1,.cls-2{stroke-width:0px;}.cls-2{fill:#febdbb;}</style></defs><g id="Capa_1-2"><path class="cls-1" d="M0,154.42c2.91-3.8,6.78-4.69,11.46-4.58,11.59.27,23.2.09,35.14.09-2.97-9.28-5.26-18.43-6.54-27.8C31.96,62.72,68.86,12.26,124.45,2.04c31.26-5.75,59.36,2.31,83.93,22.38,2.42,1.98,3.66,1.95,6.1,0C245.46-.26,280.02-6.8,317.03,7.4c37.06,14.23,58.61,42.11,65.52,81.2.35,1.99-.09,4.19,1.3,5.96v23.2c-1.72,4.27-1.63,8.9-2.55,13.33-5.06,24.52-15.54,46.69-29.68,67.14-29.4,42.55-66.13,77.43-110.69,103.92-7.82,4.65-16.08,8.43-24.76,11.31-3.38,1.12-6.46.98-9.81-.14-14.33-4.79-27.32-12.14-39.67-20.62-41.75-28.67-77-63.66-103.48-107.06-3.5-5.74-6.72-11.65-9.33-17.85-.98-2.32-2.27-2.99-4.76-2.96-12.99.14-25.98-.08-38.97.15-4.59.08-7.98-1.23-10.15-5.32v-5.24ZM90.7,149.81c11.12.04,22.23.04,33.35.16,1.81.02,2.62-.65,3.27-2.23,2.29-5.65,4.75-11.23,7.06-16.87,1.47-3.58,3.5-6.4,7.82-6.35,4.32.05,6.23,2.98,7.72,6.51,6.18,14.68,12.42,29.33,18.67,43.98.45,1.05.44,2.49,2.02,2.94.62-1.4,1.23-2.76,1.81-4.13,7.88-18.55,15.77-37.1,23.61-55.67,1.37-3.25,3.48-5.52,7.19-5.59,3.88-.08,6.13,2.14,7.56,5.57,3.06,7.35,6.22,14.66,9.36,21.98,1.37,3.2,1.98,7.66,4.43,9.21,2.61,1.65,6.99.38,10.57.66,2.7.22,4.04-.53,5.21-3.23,5.48-12.64,19.92-18.64,32.81-13.95,12.88,4.69,19.95,18.54,16.24,31.79-2.91,10.37-12.43,18.18-23.12,18.96-11.09.81-21.53-5.22-25.91-15.43-1.15-2.67-2.47-3.41-5.2-3.28-4.74.24-9.5-.07-14.24.1-4.62.17-7.5-1.8-9.21-6.06-2.57-6.39-5.36-12.69-8.26-19.51-.75,1.62-1.29,2.73-1.77,3.86-7.94,18.66-15.91,37.31-23.76,56.01-1.52,3.62-3.52,6.38-7.81,6.34-4.09-.04-6.18-2.62-7.54-6.17-1.38-3.6-2.98-7.11-4.49-10.66-5.26-12.35-10.52-24.7-15.96-37.48-1.19,2.71-2.32,4.92-3.13,7.24-1.62,4.65-4.74,6.55-9.68,6.47-10.11-.17-20.23.02-30.35.06h-29.73c.28.73.39,1.2.62,1.61,3.05,5.42,5.89,10.98,9.23,16.22,22.69,35.71,51.98,65.23,85.86,90.33,13.24,9.81,27.1,18.63,42.53,24.73,2.74,1.08,5.2,1.13,7.91.01,5.53-2.28,10.98-4.74,16.18-7.69,28.14-15.96,52.63-36.51,74.82-59.84,20.21-21.25,37.99-44.28,50.06-71.22,10.51-23.47,15.33-47.77,10.13-73.47-10.19-50.4-62.97-81.91-111.95-66.71-14.22,4.41-26.36,12.26-37,22.57-4.33,4.19-8,4.15-12.41.05-.64-.6-1.26-1.21-1.89-1.81C165.9,4.31,107.08,7.44,74.78,47.39c-24.85,30.74-25.3,65.22-12.8,101.02.5,1.42,1.31,1.53,2.5,1.52,8.74-.06,17.48-.09,26.22-.13ZM275.34,157.31c-.05-6.16-5.03-11.12-11.16-11.11-6.04,0-11.19,5.1-11.25,11.13-.06,6.14,5.27,11.41,11.46,11.3,6.13-.11,11.01-5.15,10.96-11.31Z"/><path class="cls-2" d="M98.98,165.02c10.12-.04,20.24-.22,30.35-.06,4.94.08,8.06-1.82,9.68-6.47.81-2.32,1.94-4.53,3.13-7.24,5.44,12.78,10.7,25.13,15.96,37.48,1.51,3.55,3.11,7.06,4.49,10.66,1.36,3.55,3.45,6.13,7.54,6.17,4.29.04,6.29-2.71,7.81-6.34,7.85-18.7,15.83-37.35,23.76-56.01.48-1.13,1.02-2.23,1.77-3.86,2.9,6.82,5.7,13.12,8.26,19.51,1.71,4.25,4.58,6.23,9.21,6.06,4.74-.18,9.5.13,14.24-.1,2.73-.14,4.05.6,5.2,3.28,4.38,10.21,14.82,16.24,25.91,15.43,10.7-.78,20.21-8.58,23.12-18.96,3.71-13.25-3.36-27.1-16.24-31.79-12.89-4.69-27.33,1.3-32.81,13.95-1.17,2.7-2.51,3.45-5.21,3.23-3.58-.29-7.96.98-10.57-.66-2.44-1.54-3.06-6.01-4.43-9.21-3.14-7.32-6.3-14.63-9.36-21.98-1.43-3.44-3.68-5.66-7.56-5.57-3.71.08-5.81,2.34-7.19,5.59-7.85,18.57-15.73,37.11-23.61,55.67-.58,1.37-1.19,2.72-1.81,4.13-1.57-.45-1.57-1.89-2.02-2.94-6.25-14.65-12.49-29.3-18.67-43.98-1.49-3.54-3.4-6.47-7.72-6.51-4.32-.05-6.36,2.77-7.82,6.35-2.31,5.64-4.77,11.22-7.06,16.87-.64,1.59-1.46,2.26-3.27,2.23-11.12-.12-22.23-.12-33.35-.16-.41-1.04-.8-2.08-1.22-3.11-6.43-15.83-10.7-31.93-8.66-49.34,2.14-18.26,10.41-32.87,25.07-43.66,24.08-17.73,55.47-15.94,77.81,3.75,8.91,7.85,16.95,16.55,25.41,24.85,1.64,1.61,2.61,1.92,4.53.2,8.35-7.5,15.49-16.17,23.93-23.6,14.5-12.77,30.87-19.35,50.35-16.75,21.76,2.91,37.72,14.41,47.79,33.64,6.38,12.19,7.86,25.4,6.32,39.14-1.63,14.6-6.48,28.08-13.05,40.99-5.88,11.55-13.15,22.28-21.04,32.59-8.65,11.3-18.23,21.79-28.27,31.8-6.59,6.57-13.46,12.93-20.72,18.84-13.93,11.35-28.19,22.16-44.23,30.46-2.35,1.22-4.19,1.25-6.55.02-20.41-10.59-38.28-24.71-55.14-40.1-9.11-8.31-17.82-17.09-25.97-26.4-10.43-11.93-20.08-24.41-28.08-38.12Z"/><path class="cls-2" d="M275.34,157.31c.05,6.17-4.83,11.21-10.96,11.31-6.18.11-11.52-5.16-11.46-11.3.06-6.03,5.21-11.12,11.25-11.13,6.13,0,11.11,4.95,11.16,11.11Z"/></g></svg>