<?xml version="1.0" encoding="UTF-8"?><svg id="Capa_2" xmlns="http://www.w3.org/2000/svg" viewBox="0 0 382.21 382.33"><defs><style>.cls-1{fill:#07088a;}.cls-1,.cls-2{stroke-width:0px;}.cls-2{fill:#a2f8c3;}</style></defs><g id="Capa_1-2"><path class="cls-1" d="M382.21,210.54c-3.43,4.28-2.71,9.73-4,14.6-15.76,59.68-53.57,97.76-112.59,114.86-5.12,1.48-6.88,3.23-6.6,8.44.43,7.94.07,15.92.12,23.88.04,6.69-2.81,10.03-9.88,10.01-41.06-.12-82.11-.09-123.17-.03-6.53,0-9.63-3.01-9.59-9.5.05-8.71-.23-17.43.11-26.12.18-4.66-1.06-6.7-5.87-8.3-59.88-19.9-96.29-60.85-108.66-122.81-1.45-7.27-1.71-14.82-2.01-22.26-.32-8.02,1.94-10.03,9.89-10.59,2.14-.15,5.39,1.74,6.22-1.93.66-2.9.16-5.51-2.39-8C4.06,163.28-1.15,151.66.21,137.9c2.05-20.74,21.91-32.73,43.05-26.54,8.89,2.6,14.87,10.19,22.62,13.62,7.45,3.31,17.04,1.95,24.78,6.58,4.95,2.96,9.67,6.29,13.01,10.99,2.15,3.02,4.91,3.02,7.99,3.95,12.46,3.76,15.08-8.59,22.42-13.03.81-.49.4-3.27.28-4.96-1.05-14.6,3.55-26.96,14.78-36.5,2.39-2.03,2.92-4.11,3.03-7.02.87-23,17.35-40.15,38.52-40.28,21.7-.14,38.39,16.87,39.3,40.25.11,2.92.67,5.01,3.04,7.03,10.99,9.36,15.56,21.53,14.74,35.81-.17,2.97-.98,6.14,2.57,7.72,4.01,1.78,4.2-2.45,5.74-4.13,11.75-12.73,31.98-9.82,40,5.94,1.29,2.55,1.29,5.17,6.04,3.48,11.43-4.07,22.11-.33,28.37,8.63,6.2,8.88,5.6,20.04-1.62,29.75-.56.75-1.14,1.48-2.78,3.59,14.74,0,28.22.1,41.69-.05,5.26-.06,10.34-.08,14.42,3.91v23.89ZM50.53,282.42c20.11,23.93,45.72,39.54,76.28,44.34,40.93,6.42,82.47,5.44,123.46.92,32.56-3.59,60-19.84,81.4-45.26,19.59-20.75,30.37-45.62,34.19-73.65,1.48-10.87,1.24-10.91-9.91-10.91-110.17,0-220.35,0-330.52,0-1.99,0-3.98.08-5.97,0-3.07-.14-4.55.83-4.17,4.3,3.36,30.45,13.86,57.74,35.23,80.27ZM181.4,171.55c.74-.44,1.48-.88,2.21-1.33,0-1.18,0-2.36,0-3.53,0-16.41-.07-32.81.03-49.22.04-6.88,4.1-10.59,9.45-8.96,4.67,1.42,5.52,5.04,5.51,9.37-.08,19.64.14,39.28-.15,58.91-.07,4.97,1.41,6.26,6.22,6.1,10.93-.35,21.87-.11,32.81-.11,12.43,0,12.05-.01,12.54-12.5.41-10.56-2.31-19.64-11.77-24.74-6.94-3.74-8.1-7.91-6.21-15.1,2.83-10.73.06-20.94-9.22-27.09-7.01-4.64-8.25-9.66-7.89-17.3.76-15.86-11.73-27.78-26.44-26.31-13.01,1.3-22.37,13.4-21.19,28.52.51,6.5-1.06,10.47-6.83,14.03-9.51,5.86-13.4,17.47-10.24,28.82,1.81,6.49.71,10.51-5.62,13.99-11.44,6.29-15.93,20.06-11.38,32.26.82,2.21,1.29,5.27,4.46,5.31,11.22.13,22.45.05,33.67.05-2.81-4.96-6.34-8-9.62-11.31-3.52-3.54-3.86-7.64-.2-11.15,3.43-3.29,7.37-2.75,10.57.6,3.26,3.4,6.2,7.11,9.27,10.69ZM67.1,182.79c-.48-1.41-.51-1.93-.78-2.21-4.11-4.31-11.43-8.41-4.91-15.14,6.52-6.72,11.29.43,15.39,4.48,8.52,8.41,17.07,14.92,30.42,13.16,10.53-1.39,10.68-.28,9.51-11.31-.1-.99-.29-2.02-.1-2.97,1.44-7.27-2.63-9-8.26-7.15-7.02,2.31-10.3-.84-13.87-6.24-6.75-10.24-16.17-16.02-29.04-13.75-4.5.79-7.59-.84-10.2-4.4-3.76-5.12-8.66-8.9-14.73-10.91-7.46-2.47-14.85-2.76-20.84,3.24-5.73,5.75-5.79,12.83-3.36,20.14,1.94,5.81,5.22,10.86,10.13,14.4,4.61,3.34,6.49,7.08,5.02,12.7-1.08,4.12.18,6.28,5.23,6.08,9.91-.4,19.85-.12,30.39-.12ZM187.62,367.31h41.04c15.64,0,15.43,0,15.6-16.02.06-5.37-.98-6.84-6.92-6.8-33.55.26-67.13,1.88-100.64-.91-4.56-.38-5.57,1-5.29,5.13.3,4.46.36,8.97-.01,13.42-.37,4.42,1.43,5.32,5.49,5.27,16.91-.2,33.82-.09,50.73-.09ZM285.19,182.52c13.56,3.39,23.71-1.47,31.7-12.25,3.43-4.62,4.3-9.17.22-13.38-4.1-4.24-8.88-3.9-13.24.03-2.58,2.32-4.93,4.89-7.46,7.27-2.39,2.25-5.24,2.79-8.26,1.56-3.09-1.26-4.48-3.76-4.52-7.04-.03-3.48.09-6.96-.07-10.43-.27-5.73-3.01-9.51-9.06-9.69-6.07-.17-9.12,3.46-9.49,9.2-.32,4.95-.26,9.93-.11,14.89.2,6.4-2.73,14.76,1.11,18.7,4.22,4.34,12.73.74,19.17,1.14Z"/><path class="cls-1" d="M382.21,76.15c-2.53,1.41-2.2,4.22-3,6.41-12.35,34.1-55.5,45.47-82.81,21.77-6.59-5.72-6.81-9.15-.62-15.36,19.48-19.56,38.99-39.08,58.55-58.56,5.98-5.95,9.58-5.5,15.47.89,6.35,6.89,8.68,15.76,12.41,23.94v20.9ZM329.98,101.7c26.38.23,44.09-25.54,34.68-50.11-2.07-5.41-3.47-7.41-8.5-2.08-11.76,12.43-24.19,24.22-36.15,36.47-3.19,3.27-10.15,7.14-8.44,10.07,2.59,4.45,9.61,5.34,15.43,5.63.99.05,1.98,0,2.97,0Z"/><path class="cls-1" d="M271.72,0c16.78,10.03,22.56,30.9,13.32,48.36-3.83,7.24-9.43,12.48-18,12.58-8.58.1-14.25-4.99-18.21-12.22-9.49-17.34-4.5-36.91,12.43-48.72h10.45ZM274.48,30.88c-.48-4.01-.84-7.45-2.42-10.64-1.13-2.27-2.29-4.85-5.01-4.99-3.23-.16-4.44,2.82-5.58,5.24-2.54,5.41-2.48,11.16-1.15,16.79.85,3.6,2.26,8.31,6.31,8.36,4.57.06,5.7-4.82,6.71-8.69.57-2.15.83-4.38,1.14-6.06Z"/><path class="cls-1" d="M137.34,0c9.82,3.3,16.88,9.19,17.99,20.15,1.17,11.56-6.23,21.54-17.59,24.2-10.08,2.35-21.38-3.77-25.36-13.72-4.12-10.33-.02-21.76,9.76-27.7,1.58-.96,3.96-.68,4.74-2.92h10.45ZM133.64,29.87c4.35-.89,7.09-3.31,6.75-8.04-.31-4.31-3-6.8-7.23-6.75-4.64.05-7.42,3.06-7.31,7.52.11,4.48,3.12,6.96,7.79,7.28Z"/><path class="cls-1" d="M41.27,26.93c32.4.41,61.6,29.85,61.69,62.04.02,6.5-2.7,9.55-9.34,9.62-32.18.34-62.4-29.7-62.31-62.09.02-7.28,2.5-9.67,9.96-9.57ZM86.54,79.52c-.81-13.8-21.74-34.79-35.86-36.24-2.82-.29-3.32.46-3.02,3.16,1.56,14.07,20.95,33.64,35.47,35.65,2.17.3,4.15.66,3.41-2.57Z"/><path class="cls-2" d="M50.53,282.42c-21.37-22.53-31.87-49.81-35.23-80.27-.38-3.48,1.1-4.44,4.17-4.3,1.99.09,3.98,0,5.97,0,110.17,0,220.35,0,330.52,0,11.15,0,11.39.03,9.91,10.91-3.83,28.03-14.6,52.91-34.19,73.65-93.71,0-187.43,0-281.14,0Z"/></g></svg>