<?xml version="1.0" encoding="UTF-8"?><svg id="Capa_2" xmlns="http://www.w3.org/2000/svg" viewBox="0 0 383.88 375.96"><defs><style>.cls-1{fill:#060689;}.cls-1,.cls-2{stroke-width:0px;}.cls-2{fill:#fdbdbb;}</style></defs><g id="Capa_1-2"><path class="cls-1" d="M383.88,139.93c-2.2,2.88-3.18,6.35-4.58,9.6-13.78,31.77-26.66,63.92-41.08,95.41-6.91,15.09-16.16,28.32-28.55,39.4-10.15,9.08-20.12,18.35-30.17,27.53-.99.9-2.47,1.65-1.97,3.29.59,1.91,2.33.87,3.49.91,5.65.24,8.37,2.93,8.38,8.74.03,13.99.02,27.98,0,41.97,0,6.43-2.68,9.15-9.11,9.16-19.86.03-39.73.01-59.59.01-38.61,0-77.21,0-115.82,0-7.98,0-10.34-2.34-10.35-10.21,0-13.49-.02-26.98,0-40.47.01-6.47,2.56-8.96,9.08-9.18.94-.03,2.38.83,2.81-.85.37-1.43-.62-2.24-1.58-3.11-8.25-7.45-16.28-15.17-24.74-22.37-16.17-13.76-28.24-30.3-36.76-49.81C28.82,206.74,14.9,173.28.72,139.93c-.13-.3-.48-.5-.72-.75,0-3.25,0-6.5,0-9.75,1.14-.43,1.05-1.6,1.41-2.46,5.89-13.99,22.75-17.5,33.65-6.97,2.17,2.1,3.86,4.57,5.42,7.13,9.17,15,18.37,29.98,27.47,45.02,1.12,1.85,1.88,2.57,4.28,1.58,8.66-3.6,17.51-1.15,23.48,6.24,10.13,12.52,20.28,25.03,30.26,37.66,7.84,9.93,17.74,17.5,27.82,24.89,11.38,8.35,22.88,16.55,31.42,28.08,2.43,3.28,4.51,6.78,6.8,10.88,8.71-17.43,23.16-28.53,38.18-38.87,15.23-10.49,27.49-23.78,38.59-38.37,6.27-8.24,12.92-16.2,19.44-24.25,5.99-7.4,14.76-9.85,23.47-6.26,2.37.98,3.16.31,4.29-1.56,9.1-15.04,18.3-30.02,27.46-45.02,2.3-3.76,4.92-7.21,8.64-9.7,11.26-7.56,26.16-2.59,30.71,10.18.3.85-.17,2.1,1.08,2.56v9.75ZM231.15,316.12c9.37,0,18.74-.09,28.1.06,2.62.04,3.96-.36,3.54-3.38-.57-4.07,1.32-7.01,4.36-9.73,10.82-9.63,21.36-19.57,32.17-29.22,10.98-9.8,19.23-21.44,25.39-34.79,15.34-33.25,28.67-67.37,43.44-100.86.49-1.12.81-2.37.91-3.59.19-2.31-.81-4.11-2.83-5.29-2.08-1.21-4.08-.86-5.98.4-1.82,1.2-2.96,3.01-4.07,4.83-10.4,17.02-20.79,34.04-31.2,51.06-.79,1.29-1.43,2.5-1.29,4.16.34,3.91-.43,7.72-1.82,11.36-6.56,17.27-14.49,33.89-24.02,49.73-.92,1.54-2.04,2.88-3.7,3.58-3.24,1.37-6.21.77-8.5-1.85-2.55-2.91-2.33-6.15-.4-9.35,8.54-14.1,15.58-28.94,21.71-44.23.93-2.31,1.94-4.61,1.98-7.16.05-3.08-1.74-4.85-4.8-4.95-2.28-.07-3.66,1.26-4.95,2.87-5.69,7.11-11.38,14.24-17.12,21.31-10.22,12.58-19.65,25.84-32.96,35.62-9.35,6.87-18.93,13.44-27.7,21.07-13.74,11.96-22.02,26.53-22.1,45.2-.01,2.76.88,3.22,3.37,3.18,9.49-.15,18.98-.06,28.48-.06ZM152.71,316.12c9.62,0,19.24-.09,28.85.06,2.52.04,3.05-.74,3.05-3.13,0-18.84-8.46-33.47-22.31-45.48-7.36-6.39-15.4-11.9-23.22-17.7-8.96-6.63-17.34-13.85-24.3-22.66-9.59-12.15-19.37-24.15-29.08-36.2-.7-.87-1.39-1.77-2.17-2.58-1.81-1.89-4.02-1.9-6.2-.92-2.12.95-2.76,2.89-2.29,5.02.48,2.18,1.14,4.34,1.96,6.41,5.96,15.09,12.93,29.69,21.28,43.61,1.1,1.84,2.16,3.71,1.83,5.94-.47,3.26-2.21,5.51-5.51,6.34-3.67.92-6.41-.56-8.25-3.61-9.86-16.23-17.97-33.31-24.64-51.08-1.14-3.04-1.74-6.3-1.48-9.56.16-2.01-.37-3.57-1.4-5.23-10.32-16.78-20.57-33.6-30.86-50.4-.84-1.38-1.73-2.76-2.82-3.94-2.14-2.31-4.72-3.41-7.67-1.55-2.89,1.83-3.23,4.63-2.14,7.58.98,2.69,2.25,5.27,3.39,7.89,13.59,31.29,26.19,63.01,40.46,94.01,6.14,13.35,14.39,25.01,25.37,34.81,10.81,9.65,21.37,19.56,32.19,29.19,3.14,2.8,4.97,5.87,4.47,10.09-.29,2.41.52,3.16,3.02,3.12,9.49-.15,18.98-.06,28.48-.06ZM147.1,330.92c-11.49,0-22.98.08-34.46-.06-2.54-.03-3.42.52-3.35,3.23.19,7.99.16,15.98.01,23.97-.04,2.38.52,3.15,3.04,3.13,23.1-.1,46.2-.11,69.31,0,2.67.01,2.99-.97,2.96-3.22-.11-7.86-.16-15.73.02-23.6.06-2.71-.52-3.6-3.43-3.55-11.36.19-22.73.08-34.09.08ZM236.64,361.14c11.62,0,23.23-.06,34.85.05,2.32.02,3.23-.42,3.18-3.01-.18-8.11-.14-16.23-.02-24.35.03-2.23-.48-2.97-2.87-2.96-23.23.1-46.46.1-69.69,0-2.54-.01-2.78.97-2.75,3.05.1,7.99.15,15.99-.02,23.98-.05,2.57.54,3.37,3.23,3.33,11.36-.16,22.73-.07,34.1-.07Z"/><path class="cls-2" d="M281.92,90.55c-.38,48.3-39.75,89.25-90.53,88.9-49.61-.34-89.99-40.37-89.25-90.07C102.92,36.86,140.59-.25,192.59,0c51.48.25,88.48,37.73,89.33,90.55ZM191.92,37.08c-5.87,0-11.74-.04-17.62.01-5.74.05-8.43,2.75-8.5,8.53-.05,5-.11,10,.03,14.99.06,2.14-.62,2.81-2.76,2.75-4.99-.14-9.99-.09-14.99-.03-5.76.06-8.51,2.77-8.54,8.5-.05,11.74-.06,23.49,0,35.23.03,5.56,2.76,8.27,8.29,8.35,5,.07,10,.12,14.99-.03,2.23-.06,3.09.52,3.01,2.9-.17,4.99-.1,9.99-.04,14.99.07,5.55,2.7,8.4,8.25,8.46,11.87.13,23.74.12,35.61,0,5.8-.06,8.4-2.85,8.45-8.64.05-5,.11-10-.03-14.99-.06-2.17.68-2.78,2.78-2.73,5.12.13,10.25.1,15.37.02,5.31-.08,8.11-2.83,8.14-8.12.07-11.99.07-23.99,0-35.98-.03-5.07-2.86-7.87-7.9-7.97-4.87-.09-9.75-.18-14.61.03-2.82.12-4-.5-3.79-3.62.29-4.35.08-8.74.07-13.11-.02-7.22-2.38-9.55-9.72-9.56-5.5,0-10.99,0-16.49,0Z"/><path class="cls-1" d="M191.92,37.08c5.5,0,10.99,0,16.49,0,7.34.01,9.7,2.34,9.72,9.56,0,4.37.22,8.76-.07,13.11-.21,3.12.97,3.75,3.79,3.62,4.86-.21,9.74-.13,14.61-.03,5.04.1,7.86,2.9,7.9,7.97.08,11.99.07,23.99,0,35.98-.03,5.28-2.83,8.03-8.14,8.12-5.12.08-10.25.11-15.37-.02-2.09-.05-2.84.56-2.78,2.73.14,4.99.08,9.99.03,14.99-.06,5.78-2.65,8.58-8.45,8.64-11.87.12-23.74.12-35.61,0-5.55-.06-8.18-2.92-8.25-8.46-.07-5-.13-10,.04-14.99.08-2.38-.78-2.96-3.01-2.9-4.99.14-9.99.1-14.99.03-5.53-.08-8.26-2.79-8.29-8.35-.06-11.74-.05-23.49,0-35.23.02-5.73,2.78-8.44,8.54-8.5,5-.05,10-.11,14.99.03,2.14.06,2.82-.61,2.76-2.75-.14-4.99-.09-9.99-.03-14.99.06-5.78,2.76-8.49,8.5-8.53,5.87-.05,11.74-.01,17.62-.01ZM191.81,51.66c-2.75,0-5.5.13-8.24-.04-2.25-.14-3.08.52-3,2.89.17,4.99.1,9.99.04,14.99-.07,5.55-2.75,8.33-8.24,8.44-4.99.1-10,.11-14.99-.02-2.14-.05-3.15.34-3.08,2.82.18,5.86.13,11.74.02,17.61-.04,1.97.6,2.59,2.56,2.54,5.12-.12,10.24-.08,15.36-.03,5.48.06,8.28,2.82,8.36,8.3.07,5,.12,9.99-.03,14.99-.06,2.21.46,3.08,2.87,3,5.62-.18,11.25-.2,16.86,0,2.62.1,3.11-.9,3.04-3.23-.15-4.99-.13-9.99-.02-14.99.11-5.26,2.95-8.01,8.21-8.07,5.12-.06,10.24-.07,15.36.02,1.8.03,2.74-.27,2.7-2.41-.12-5.99-.11-11.99,0-17.98.03-1.97-.63-2.6-2.58-2.56-4.99.11-9.99.09-14.99.02-6.02-.08-8.65-2.73-8.71-8.74-.05-5-.08-9.99.02-14.99.04-1.91-.53-2.69-2.54-2.6-2.99.14-5.99.04-8.99.04Z"/><path class="cls-2" d="M191.81,51.66c3,0,6,.1,8.99-.04,2.01-.09,2.57.68,2.54,2.6-.1,4.99-.07,9.99-.02,14.99.06,6.01,2.69,8.66,8.71,8.74,5,.07,9.99.09,14.99-.02,1.95-.04,2.62.59,2.58,2.56-.1,5.99-.12,11.99,0,17.98.04,2.14-.9,2.44-2.7,2.41-5.12-.09-10.24-.08-15.36-.02-5.26.06-8.1,2.81-8.21,8.07-.11,4.99-.13,9.99.02,14.99.07,2.33-.43,3.32-3.04,3.23-5.61-.21-11.24-.19-16.86,0-2.42.08-2.94-.79-2.87-3,.14-4.99.1-9.99.03-14.99-.08-5.48-2.87-8.24-8.36-8.3-5.12-.05-10.24-.09-15.36.03-1.96.05-2.6-.57-2.56-2.54.11-5.87.16-11.74-.02-17.61-.08-2.49.93-2.88,3.08-2.82,4.99.13,9.99.11,14.99.02,5.49-.11,8.17-2.88,8.24-8.44.06-5,.13-10-.04-14.99-.08-2.37.75-3.03,3-2.89,2.74.17,5.49.04,8.24.04Z"/></g></svg>