<?xml version="1.0" encoding="UTF-8"?><svg id="Capa_2" xmlns="http://www.w3.org/2000/svg" viewBox="0 0 383.11 375.76"><defs><style>.cls-1{fill:#febdbb;}.cls-1,.cls-2{stroke-width:0px;}.cls-2{fill:#050589;}</style></defs><g id="Capa_1-2"><path class="cls-2" d="M0,350.29c9.38-18.77,19.79-37,30.79-54.83,14.44-23.41,34.91-38.93,62.31-44.4,15.71-3.14,31.49-2.62,47.27-.62,11.24,1.43,22.47,3,33.67,4.69,12.41,1.88,24.61-.47,36.85-1.7,14.75-1.48,29.46-3.34,44.22-4.79,11.08-1.08,20.61,5.3,24.1,16,.78,2.4,1.64,2.54,3.87,2,22.35-5.49,44.73-10.82,67.1-16.22,5.3-1.28,10.58-1.58,15.87-.03,9.53,2.79,16.26,10.93,16.99,20.56.78,10.33-4.72,19.7-14.53,23.9-9.02,3.87-18.23,7.3-27.34,10.97-34.47,13.87-68.71,28.31-103.63,41.07-18.92,6.91-38.3,9.49-58.35,8.23-16.05-1.01-32.12-1.51-48.18-2.32-1.74-.09-2.75.41-3.63,1.88-2.25,3.73-4.6,7.4-7,11.04-4.39,6.67-10.72,9.95-18.6,9.98-27.43.08-54.86.14-82.29-.03-8.55-.05-14.46-4.65-17.95-12.41-.49-1.09-.35-2.48-1.54-3.23v-9.73ZM161.44,339.34s0-.06,0-.09c.99.08,1.99.2,2.98.23,14.81.46,29.62,2.04,44.42-.34,14-2.25,27.05-7.52,40.18-12.49,37.56-14.21,74.37-30.32,111.83-44.77,1.26-.49,2.52-1.13,3.6-1.93,2.84-2.1,4.14-5,3.51-8.49-.66-3.64-2.91-5.9-6.57-6.82-2.92-.73-5.72-.15-8.49.51-24.68,5.92-49.34,11.91-74.01,17.86-1.24.3-2.27.76-3.12,1.83-3.84,4.81-9.03,7.73-14.56,10.14-9.81,4.26-19.78,8.11-29.88,11.63-10.1,3.52-20.33,6.65-30.73,9.16-5.74,1.39-10.12-1.3-10.54-6.29-.36-4.23,2.1-7.15,7.31-8.39,14.79-3.53,29.15-8.4,43.3-13.9,6.94-2.7,14.07-5.05,20.43-9.05,4.07-2.57,5.14-5.43,3.85-9.06-1.38-3.89-4.63-5.94-9.11-5.45-16.6,1.81-33.19,3.63-49.77,5.58-14.05,1.65-28.04,2.03-42.09-.25-15.98-2.59-32-4.91-48.28-4.98-29.97-.13-53.46,11.89-70.34,36.69-7.93,11.65-14.18,24.28-21.28,36.41-2.76,4.73-5.55,9.45-8.05,14.32-2.81,5.45-.3,9.39,5.76,9.4,10.23.02,20.45,0,30.68,0,15.71,0,31.42-.12,47.13.04,4.49.05,7.53-1.42,9.72-5.4,2.34-4.24,5.31-8.14,7.67-12.38,2.37-4.25,5.67-5.76,10.47-5.44,11.32.76,22.66,1.19,33.99,1.75Z"/><path class="cls-1" d="M69.66,107.96c-1.97-7.68-3.97-15.32-4.82-23.27-1.83-17.01,1.06-33.07,9.7-47.73C86.26,17.09,103.85,4.94,126.56,1.09c21.2-3.6,40.4,1.85,57.41,15,.3.23.53.56.85.72,2.69,1.35,4.21,5.53,6.86,5.17,2.49-.34,4.57-3.52,6.88-5.39C213.53,4.46,230.78-1.25,249.88.25c34.01,2.68,61.02,27.14,67.38,59.97,2.87,14.86,1.41,29.39-2.86,43.76-.39,1.3-.66,2.65-.98,3.97-1.36.06-2.73.18-4.09.19-23.31.01-46.62.06-69.93-.04-4.72-.02-7.68,1.84-9.48,6.23-4.44,10.81-9.09,21.54-13.68,32.29-.47,1.11-.62,2.44-1.93,3.25-.61-1.38-1.22-2.71-1.8-4.06-12.12-28.49-24.26-56.98-36.32-85.49-1.47-3.48-3.47-6.17-7.5-6.25-4.24-.09-6.33,2.69-7.84,6.3-6.2,14.79-12.57,29.52-18.73,44.33-1.05,2.53-2.27,3.59-5.15,3.52-8.85-.21-17.7-.05-26.55-.08-13.58-.04-27.16-.13-40.74-.19Z"/><path class="cls-1" d="M306.74,123.42c-6.48,13.85-15.12,26.32-24.85,37.99-18.34,22.01-39.14,41.35-63.37,56.83-7.24,4.63-14.75,8.76-22.84,11.77-2.98,1.11-5.69,1.02-8.61-.15-15.99-6.4-30.01-16-43.42-26.61-11.74-9.29-22.55-19.61-32.69-30.58-13.72-14.85-25.88-30.87-34.63-49.25,1.36-.08,2.72-.23,4.09-.23,20.82-.01,41.64-.11,62.46.06,5.33.04,8.56-1.88,10.57-6.92,4.24-10.62,8.87-21.09,13.38-31.61.47-1.1.6-2.44,1.93-3.22.58,1.25,1.18,2.45,1.7,3.68,12.02,28.27,24.05,56.53,36.01,84.83,1.58,3.75,3.35,7.2,7.97,7.25,4.83.06,6.64-3.53,8.26-7.39,6.1-14.57,12.35-29.07,18.44-43.65.95-2.27,2.11-3.16,4.68-3.11,10.22.17,20.44.04,30.67.08,10.09.04,20.18.15,30.26.23Z"/><path class="cls-2" d="M306.74,123.42c-10.09-.08-20.18-.19-30.26-.23-10.22-.04-20.45.09-30.67-.08-2.57-.04-3.73.84-4.68,3.11-6.08,14.58-12.34,29.08-18.44,43.65-1.62,3.87-3.43,7.45-8.26,7.39-4.62-.05-6.38-3.51-7.97-7.25-11.95-28.3-23.99-56.56-36.01-84.83-.52-1.23-1.12-2.43-1.7-3.68-1.33.77-1.46,2.11-1.93,3.22-4.5,10.52-9.14,20.98-13.38,31.61-2.01,5.04-5.25,6.96-10.57,6.92-20.82-.16-41.64-.07-62.46-.06-1.36,0-2.72.15-4.09.23-9.44-.09-18.89-.2-28.33-.27-6.98-.05-10.34-2.37-10.48-7.32-.14-5.05,3.43-7.64,10.51-7.68,7.21-.04,14.42-.13,21.63-.2,13.58.07,27.16.15,40.74.19,8.85.03,17.7-.13,26.55.08,2.88.07,4.1-.99,5.15-3.52,6.16-14.81,12.53-29.54,18.73-44.33,1.52-3.61,3.6-6.39,7.84-6.3,4.03.08,6.03,2.77,7.5,6.25,12.06,28.52,24.2,57,36.32,85.49.57,1.35,1.19,2.68,1.8,4.06,1.31-.81,1.46-2.14,1.93-3.25,4.6-10.75,9.24-21.48,13.68-32.29,1.81-4.4,4.76-6.25,9.48-6.23,23.31.1,46.62.05,69.93.04,1.36,0,2.73-.12,4.09-.19,7.95.07,15.91.04,23.85.24,6.47.16,10.08,5.55,7.43,10.87-1.67,3.37-4.73,4.09-8.15,4.08-8.58-.02-17.16-.02-25.74,0-1.36,0-2.71.17-4.06.26Z"/></g></svg>