<?xml version="1.0" encoding="UTF-8"?><svg id="Capa_2" xmlns="http://www.w3.org/2000/svg" viewBox="0 0 324.05 383.15"><defs><style>.cls-1{fill:#fdbcbb;}.cls-1,.cls-2{stroke-width:0px;}.cls-2{fill:#040489;}</style></defs><g id="Capa_1-2"><path class="cls-2" d="M39.72,383.15c-4.49-2.03-9.49-2.36-14.01-4.41-15.27-6.9-24.46-18.36-25.56-35.21-1.16-17.7,3.87-32.92,20.52-42.04,11.61-6.36,24.18-6.44,36.76-3.99,8.17,1.59,16.2,3.9,24.24,6.05,2.58.69,3.56.37,3.46-2.58-.2-5.73-.19-11.47,0-17.2.09-2.56-.81-3.17-3.2-3.09-8.24.27-16.47.24-24.07-3.75-13.1-6.86-20.68-17.53-21.14-32.38-.45-14.7-.43-29.43-.03-44.13.91-32.96,28.69-61.11,61.61-62.8,2.84-.15,5.7-.02,8.46-.02.45-1.86-.71-2.48-1.32-3.3-9.27-12.53-13.89-26.61-14-42.15-.09-12.72-.07-25.44,0-38.15C91.62,23.61,115.25.1,145.65.02c10.72-.03,21.45-.03,32.17,0,30.21.08,53.96,23.52,54.08,53.68.06,15.08.71,30.18-.42,45.24-1.01,13.39-5.96,25.34-14.08,36-.37.49-.69,1.02-1.01,1.55-.05.08.02.24.07.71,6.32.43,12.74.44,19.05,1.88,29.1,6.68,50.66,32.78,51.22,62.57.26,13.84.24,27.68.03,41.52-.33,21.23-16.32,37.06-37.58,37.54-3.47.08-8.22-1.16-10.09.61-2.38,2.26-.63,7.05-.79,10.75-.13,2.99.17,6-.08,8.97-.25,3.07,1.05,3.2,3.48,2.57,9.63-2.48,19.09-5.78,29.02-6.9,15.26-1.72,29.75.04,41.23,11.64,22.96,23.18,11.63,63.62-20.23,72.49-3.15.88-6.36,1.54-9.54,2.31H39.72ZM106.61,83.12c-.04,3.48-.3,6.98-.1,10.44,1.3,22.59,11.86,39.47,32.47,48.85,20.48,9.32,40.21,6.48,57.72-7.62,16.42-13.22,21.6-31.26,20.08-51.67.03-10.34.49-20.71,0-31.03-.95-19.34-14.01-34.21-33.25-36.4-15.06-1.72-30.41-1.71-45.51.17-15.82,1.97-29.14,16.17-30.96,32.15-1.33,11.66-.53,23.4-.44,35.11ZM51.62,219.35c0,9.82-.16,17.3.04,24.78.3,11.05,9.23,20.75,20.17,21.39,8.7.51,17.45.13,26.18.22,1.66.02,2.12-.61,2.11-2.19-.06-8.1-.06-16.21,0-24.31.01-1.62-.56-2.2-2.16-2.16-3.24.08-6.49.11-9.72,0-4.93-.18-7.96-3.11-8.02-7.99-.11-8.35-.11-16.71,0-25.06.06-4.48,3.34-7.77,7.41-7.83,4.28-.06,7.46,3.24,7.53,8.02.08,4.99.13,9.98-.03,14.96-.07,2.29.61,3.01,2.93,2.95,6.36-.15,12.72-.24,19.07.03,2.77.12,3.58-.92,4.06-3.37,1.69-8.6,5.9-15.79,12.7-21.39,19.49-16.02,61.89-12.32,68.51,22.25.32,1.67.83,2.53,2.85,2.49,6.73-.16,13.47-.17,20.2,0,2.51.06,2.84-.97,2.79-3.09-.12-4.86-.08-9.72-.02-14.59.06-4.83,3.05-8.16,7.3-8.26,4.2-.1,7.6,3.27,7.66,7.96.11,8.35.12,16.71,0,25.06-.07,4.7-3.05,7.62-7.77,7.85-2.99.14-5.99.17-8.97,0-2.34-.14-3.28.44-3.22,3.04.18,7.6.16,15.21,0,22.81-.05,2.41.79,2.89,3,2.86,7.73-.13,15.46.05,23.19-.09,12.53-.23,22.2-9.85,22.34-22.39.15-13.84.22-27.68-.03-41.52-.43-23.42-18.3-44.2-41.32-48.38-9.77-1.77-19.65-.63-29.48-.98-2.08-.08-3.83.53-5.65,1.48-22.41,11.63-44.85,11.59-67.25-.04-1.44-.75-2.8-1.47-4.54-1.44-7.98.11-15.97-.12-23.93.22-23.03.98-43.28,19.08-47.16,41.82-1.55,9.05-.38,18.17-.76,24.91ZM209.38,368.15c21.19,0,42.39-.02,63.58.02,3.38,0,6.72-.23,10.05-.76,16.89-2.68,26.23-14.05,25.32-30.87-.74-13.72-8.12-22.23-21.57-24.69-7.75-1.41-15.38-.45-22.93,1.48-27.71,7.1-55.42,14.17-83.12,21.27-12.41,3.18-24.81,6.4-37.21,9.58-2.42.62-4.75,1.46-6.92,2.71-5.49,3.15-7.72,7.72-6.35,12.97,1.36,5.21,5.65,8.28,11.84,8.28,22.44.03,44.88.01,67.32.01ZM131.68,331.8c-21.17-5.42-41.9-10.68-62.61-16.03-9.53-2.46-18.96-5.2-29.01-4.48-12.72.91-21.7,8.06-24.18,19.59-3.24,15.08,1.52,26.82,13.35,32.89,6,3.08,12.44,4.35,19.12,4.37,21.95.05,43.9.02,65.85.01.84,0,1.68-.09,2.54-.14-3.9-18.29-2.13-22.62,14.96-36.21ZM161.92,280.73c-19.56,0-39.12.04-58.67-.05-2.37-.01-3.24.51-3.18,3.06.18,7.1.17,14.2,0,21.3-.06,2.43.66,3.42,3.05,4.02,18.81,4.7,37.58,9.52,56.35,14.37,1.5.39,2.82.41,4.34.02,18.89-4.87,37.79-9.68,56.71-14.44,1.98-.5,2.82-1.26,2.77-3.49-.17-6.97-.22-13.96.01-20.92.1-3.04-.65-3.97-3.83-3.94-19.18.16-38.37.08-57.55.08ZM154.19,204.14c-8.23,1.74-14.07,5.94-17.18,13.63-1.52,3.76-1.77,7.74-2.08,11.71-.38,4.81-3.09,7.42-7.96,7.59-2.99.11-5.99.17-8.97-.02-2.29-.15-2.98.53-2.93,2.88.16,7.6.17,15.2,0,22.8-.06,2.52.75,3.08,3.13,3.04,9.09-.13,18.19-.05,27.29-.05q8.71,0,8.71-8.55v-53.02ZM169.18,234.8c0,9.47.04,18.94-.04,28.41-.02,1.87.4,2.57,2.44,2.55,11.34-.1,22.68-.1,34.02,0,2.13.02,2.72-.62,2.68-2.72-.12-6.73-.05-13.46-.05-20.19,0-5.76,0-5.82-5.91-5.75-9.49.11-13.68,1.01-14.5-12.88-.57-9.75-6.98-16.82-15.98-19.49-2.29-.68-2.74-.23-2.71,2.02.09,9.35.04,18.69.04,28.04Z"/><path class="cls-1" d="M216.78,83.11c-17.38-.53-33.83-5.06-49.79-11.62-7.51-3.08-14.82-6.55-20.38-12.78-1.77-1.99-2.16.05-2.83,1.06-7,10.49-16.31,17.99-28.39,21.87-2.84.91-5.77,1.5-8.78,1.48-.09-11.71-.89-23.45.44-35.11,1.82-15.98,15.14-30.18,30.96-32.15,15.1-1.88,30.45-1.88,45.51-.17,19.25,2.19,32.31,17.06,33.25,36.4.5,10.32.04,20.68,0,31.03Z"/></g></svg>