<?xml version="1.0" encoding="UTF-8"?><svg id="Capa_2" xmlns="http://www.w3.org/2000/svg" viewBox="0 0 269.84 382.96"><defs><style>.cls-1{fill:#f7ef9a;}.cls-1,.cls-2,.cls-3,.cls-4{stroke-width:0px;}.cls-2{fill:#07078a;}.cls-3{fill:#fdf49b;}.cls-4{fill:#050589;}</style></defs><g id="Capa_1-2"><path class="cls-4" d="M137.17,0c4.15,2.05,5.61,5.45,5.29,9.93-.2,2.84.04,5.7-.07,8.55-.17,4.49-3.32,7.66-7.47,7.66-4.11,0-7.31-3.22-7.47-7.66-.1-2.85.14-5.72-.07-8.55-.33-4.49,1.13-7.89,5.29-9.93h4.5Z"/><path class="cls-4" d="M212,180.56c2.65,8.8,6.24,17.3,8.36,26.28,2.62,11.05,2.67,22.25,2.09,33.47-.46,8.96-1.1,17.92-1.92,26.86-.24,2.63.49,3.8,2.96,4.55,2.61.8,5.14,1.92,7.58,3.15,3.76,1.88,5.21,5.77,3.73,9.44-1.5,3.71-5.26,5.74-9.18,4.34-5.62-2.01-11.16-4.31-16.59-6.81-3.18-1.46-4.07-4.45-3.83-7.86.65-9.33.75-18.72,1.91-27.98,2.72-21.82-2.11-42.18-10.09-62.31-11.51-29.04-24.81-57.29-37.06-86-1.32-3.09-2.52-6.23-3.94-9.27-1.72-3.68-4.84-5.31-8.09-4.44-3.14.84-5.08,3.55-4.74,7.54.58,6.73,3.05,13.06,4.72,19.55,3.52,13.74,7.32,27.4,10.95,41.11.49,1.86,1.22,3.36,2.76,4.65,3.4,2.86,5.68,6.61,7.44,10.64,7.68,17.59,14.15,35.6,18.82,54.22,1.52,6.06-1.51,10.58-6.97,10.63-3.84.04-6.48-2.23-7.61-6.9-4.09-16.85-9.99-33.08-16.72-49.03-.96-2.28-2.12-4.51-3.41-6.62-1.5-2.44-3.7-3.82-6.65-2.71-2.88,1.08-4.39,3.27-4.07,6.41.81,7.93,1.82,15.85,2.53,23.79,1.2,13.52,3.98,26.91,3.41,40.56-.47,11.35-2.61,22.51-4.09,33.75-1.65,12.54-2.73,25.07,1.14,37.43,4.84,15.47,15.82,25.84,28.78,34.67,11.37,7.75,24.54,11.49,36.93,16.95,6.04,2.66,12.23,4.97,18.31,7.54,5.1,2.15,7.07,6.07,5.31,10.26-1.78,4.23-5.95,5.66-10.98,3.61-15.22-6.2-30.75-11.77-45.56-18.84-17.5-8.36-32.21-20.4-41.87-37.73-.39-.71-.48-1.69-1.75-2.13-5.69,11.12-13.97,20.07-23.7,27.87-10.96,8.79-23.62,14.23-36.54,19.27-9.51,3.71-18.9,7.73-28.36,11.57-5.04,2.04-9.18.62-10.96-3.64-1.76-4.2.27-8.15,5.34-10.23,13.94-5.73,27.94-11.29,41.81-17.18,12.48-5.3,23.14-13.21,31.97-23.5,9.77-11.38,13.22-24.83,12.81-39.55-.34-12.13-2.46-24.05-4.26-35.98-2.05-13.62-1.15-27.07.52-40.6,1.51-12.24,2.73-24.52,4.11-36.78.39-3.48-.58-6.27-4.06-7.51-3.8-1.35-5.97,1.07-7.44,3.98-5.35,10.57-9.25,21.73-13.08,32.91-2.46,7.18-4.52,14.48-6.36,21.85-1.38,5.54-6.2,8.01-10.77,5.82-3.61-1.73-4.83-5.24-3.58-10.29,4.26-17.19,10.24-33.79,17.05-50.11,2.41-5.78,5.14-11.38,10.21-15.39,1.1-.87,1.22-2.13,1.54-3.3,5-18.62,9.98-37.25,14.95-55.88.58-2.17,1.09-4.35.84-6.64-.33-3.01-1.79-5.24-4.79-6.01-3.13-.79-5.63.41-7.39,3.09-.34.52-.63,1.07-.87,1.65-13.29,32.32-28.97,63.63-41.18,96.41-3.91,10.49-8.09,20.89-9.6,32.1-1.64,12.22-.26,24.4.46,36.58.41,6.84.88,13.68,1.35,20.53.27,4-1.52,6.67-5.19,8.16-4.73,1.92-9.43,3.92-14.2,5.74-4.62,1.76-8.56.16-10.23-3.97-1.63-4.04.2-7.83,4.78-9.84,2.05-.9,4.06-2.03,6.21-2.54,3.23-.77,3.41-2.66,3.2-5.49-1.01-13.42-2.22-26.83-2.1-40.33.13-14.47,4.48-27.93,9.39-41.29.51-1.39.89-2.83,1.34-4.25,1.82-4.48,3.65-8.95,5.45-13.43,11.54-28.6,24.9-56.41,36.82-84.85,5.61-13.38,20.82-17.49,32.76-9.3,1.34.92,2.16,1.41,3.83.27,12.67-8.61,27.52-4.32,33.36,9.71,6.97,16.76,14.43,33.32,21.84,49.89,7.05,15.76,13.55,31.75,20.1,47.73ZM135.32,122.13h-.81c-2.11,7.88-4.23,15.76-6.33,23.65-.51,1.92-1.66,3.97-1.32,5.73.42,2.18,3.49,1.72,5.04,3.06.37.32.83.55,1.26.8,1.16.7,9.58-2.18,9.95-3.46.13-.44-.04-.99-.16-1.46-2.53-9.44-5.08-18.88-7.62-28.32Z"/><path class="cls-3" d="M212,180.56c-6.55-15.97-13.05-31.96-20.1-47.73-7.41-16.57-14.86-33.12-21.84-49.89-5.84-14.03-20.69-18.32-33.36-9.71-1.68,1.14-2.49.65-3.83-.27-11.95-8.19-27.15-4.08-32.76,9.3-11.92,28.44-25.28,56.25-36.82,84.85-1.81,4.48-3.63,8.95-5.45,13.43-6.19-8.41-9.51-18.07-11.29-28.14-4.98-28.21,1.99-53.46,20.04-75.65,13.86-17.05,31.84-27.57,53.45-30.83,26.32-3.96,50.51,1.59,71.37,18.96,18.35,15.27,28.97,34.91,32.56,58.25,2.88,18.72-.35,36.63-9.27,53.42-.75,1.41-1.8,2.67-2.7,4Z"/><path class="cls-2" d="M252.72,197.93c.03,5.63-5.2,9.39-10.08,7.16-4.05-1.85-7.92-4.18-11.62-6.67-3.24-2.18-3.82-5.88-2-9.26,1.77-3.29,5.39-4.93,8.87-3.5,4.37,1.79,8.41,4.31,12.28,7.02,1.81,1.27,2.61,3.28,2.54,5.26Z"/><path class="cls-2" d="M252.72,71.1c0,2.7-1.16,4.84-3.44,6.23-3.29,2.01-6.6,3.99-10.01,5.78-3.88,2.03-8.03.86-10.09-2.63-2.2-3.74-1.2-7.84,2.73-10.29,3.37-2.1,6.79-4.19,10.38-5.87,5.04-2.37,10.47,1.29,10.43,6.78Z"/><path class="cls-2" d="M17.11,198.41c-.08-2.87,1.16-5.08,3.57-6.54,3.19-1.94,6.4-3.83,9.7-5.57,4.04-2.13,8.32-.94,10.37,2.68,2.1,3.72.99,7.8-2.97,10.25-3.28,2.03-6.58,4.06-10.04,5.72-5.04,2.41-10.53-1.09-10.63-6.53Z"/><path class="cls-2" d="M25.02,63.53c.63.19,1.79.33,2.74.85,3.6,1.96,7.24,3.89,10.67,6.13,3.47,2.26,4.28,6.37,2.31,9.85-1.83,3.23-5.92,4.83-9.37,3.12-4-1.98-7.89-4.25-11.57-6.78-2.9-1.99-3.42-5.14-2.16-8.35,1.19-3.04,3.54-4.71,7.38-4.82Z"/><path class="cls-2" d="M71.03,17.09c2.87-.08,5.09,1.15,6.55,3.56,1.94,3.18,3.85,6.38,5.59,9.67,2.13,4.03.94,8.31-2.69,10.35-3.72,2.1-7.81.99-10.26-2.97-2.02-3.27-4.06-6.56-5.72-10.02-2.42-5.03,1.07-10.51,6.53-10.59Z"/><path class="cls-2" d="M198.64,17.09c5.34-.01,9.08,5.2,6.84,10.07-1.85,4.04-4.18,7.91-6.66,11.61-2.08,3.1-6.1,3.72-9.34,1.99-3.28-1.76-5-5.82-3.35-9.27,1.93-4.02,4.28-7.85,6.69-11.61,1.26-1.97,3.4-2.85,5.82-2.79Z"/><path class="cls-2" d="M256.43,142.12c-1.87,0-3.75.12-5.6-.02-4.31-.34-7.23-3.5-7.15-7.59.08-3.97,2.9-7.04,7.06-7.25,3.98-.2,7.98-.19,11.96,0,4.19.19,7.01,3.19,7.14,7.17.13,4.1-2.75,7.32-7.05,7.67-2.1.17-4.23.03-6.35.03Z"/><path class="cls-2" d="M13.17,142.12c-1.99,0-4,.12-5.98-.02C2.85,141.78-.05,138.67,0,134.56c.05-4.12,2.98-7.16,7.37-7.33,3.86-.15,7.73-.16,11.58,0,4.23.18,7.28,3.5,7.23,7.51-.05,3.85-3.02,7.03-7.04,7.35-1.98.16-3.98.03-5.98.03Z"/><path class="cls-1" d="M135.32,122.13c2.54,9.44,5.09,18.88,7.62,28.32.13.47.29,1.02.16,1.46-.37,1.28-8.79,4.16-9.95,3.46-.43-.26-.89-.48-1.26-.8-1.54-1.34-4.62-.87-5.04-3.06-.34-1.76.8-3.82,1.32-5.73,2.11-7.89,4.22-15.77,6.33-23.65h.81Z"/></g></svg>