<?xml version="1.0" encoding="UTF-8"?><svg id="Capa_2" xmlns="http://www.w3.org/2000/svg" viewBox="0 0 337.41 383.13"><defs><style>.cls-1{fill:#fef49a;}.cls-1,.cls-2{stroke-width:0px;}.cls-2{fill:#030388;}</style></defs><g id="Capa_1-2"><path class="cls-2" d="M57.74,383.13c-4.08-2.18-5.41-5.54-5.33-10.13.23-13.59.06-27.18.09-40.78.01-6.18,2.74-8.92,8.89-8.95,5.62-.03,11.25-.19,16.86.06,3.23.14,4.43-.52,4.33-4.12-.28-10.59-.12-21.2-.1-31.8.01-6.37,2.72-9.03,9.16-9.05,6.5-.02,13-.08,19.49.04,2.01.04,2.69-.55,3.04-2.59,2.07-12.02,4.26-24.03,6.61-36,.5-2.54-.22-3.63-2.38-4.9-25.51-15-41.72-36.94-48.47-65.71-.59-2.53-1.48-3.4-4-3.78-31.65-4.77-52.44-22.58-62.76-52.65C.96,106.3.03,99.46.02,92.56,0,72.61,0,52.66.01,32.7c0-5.91,2.81-8.74,8.71-8.75,18.37-.03,36.73-.07,55.1.05,2.76.02,4-.43,3.74-3.55-.32-3.71-.09-7.48-.07-11.22C67.51,2.6,70.13,0,76.85,0,130.57,0,184.3,0,238.03,0c7,0,13.99,0,20.99,0,8.93,0,10.9,2.01,10.9,11.07,0,3.37.17,6.75-.06,10.1-.17,2.42.71,2.84,2.94,2.83,18.37-.09,36.73-.06,55.1-.05,6.9,0,9.49,2.59,9.5,9.47.01,18.83.02,37.66,0,56.49-.04,39.4-27.16,70.35-66.28,75.59-2.19.29-3.06,1.07-3.58,3.33-6.59,28.67-22.62,50.6-47.88,65.72-2.58,1.55-3.6,2.88-2.97,6.02,2.37,11.71,4.49,23.48,6.54,35.25.35,2.03,1.01,2.63,3.04,2.6,6.62-.12,13.24-.07,19.87-.04,5.94.03,8.77,2.8,8.79,8.67.04,10.85.16,21.7-.08,32.55-.07,3.27.96,3.87,3.94,3.75,5.86-.24,11.74-.11,17.61-.06,5.63.05,8.49,2.91,8.51,8.57.04,13.72-.13,27.44.09,41.15.08,4.59-1.27,7.95-5.33,10.13H57.74ZM168.67,14.97c-27.48,0-54.96.06-82.44-.08-3.15-.02-3.83.77-3.83,3.86.11,42.51.08,85.02.07,127.54,0,3.74.24,7.46.63,11.19,4.33,41.06,40.09,74.41,81.5,75.94,49.78,1.84,90.17-36.75,90.29-86.44.11-42.89-.01-85.77.1-128.66,0-2.88-.8-3.41-3.51-3.4-27.61.11-55.21.06-82.82.06ZM168.7,368.16c32.6,0,65.21-.04,97.81.07,2.78,0,3.56-.62,3.48-3.44-.22-7.72-.22-15.46,0-23.19.08-2.84-.72-3.46-3.49-3.44-18.36.13-36.73.07-55.09.07-46.84,0-93.69.03-140.53-.07-2.78,0-3.56.62-3.48,3.44.22,7.6.25,15.21,0,22.81-.11,3.16.78,3.83,3.87,3.82,32.48-.12,64.96-.08,97.44-.08ZM67.48,94.73c0-17.58-.04-35.16.05-52.73.01-2.31-.4-3.17-2.99-3.15-15.49.13-30.98.11-46.46.02-2.34-.01-3.16.45-3.14,3,.13,16.7-.03,33.41.09,50.11.21,28.48,21.07,53.08,49.17,58.28,2.59.48,3.38.03,3.36-2.8-.14-17.58-.07-35.15-.07-52.73ZM269.92,95.04c0,17.45.06,34.91-.06,52.36-.02,2.66.55,3.38,3.28,2.88,28.01-5.09,48.98-29.74,49.22-58.24.14-16.7-.02-33.41.09-50.11.02-2.43-.61-3.09-3.07-3.07-15.36.12-30.73.14-46.09-.02-2.82-.03-3.47.69-3.45,3.47.14,17.58.07,35.15.07,52.73ZM168.32,323.26c22.86,0,45.72-.04,68.57.05,2.41,0,3.15-.56,3.1-3.04-.17-8.1-.13-16.21-.01-24.31.03-2.12-.58-2.68-2.69-2.68-45.72.06-91.43.06-137.15,0-2.08,0-2.75.51-2.71,2.66.13,7.98.19,15.96-.02,23.93-.08,2.81.68,3.47,3.47,3.45,22.48-.13,44.97-.07,67.45-.07ZM128.98,278.21h79.43c-2.02-11.18-4.06-22.17-5.97-33.19-.35-2.01-1.18-1.98-2.81-1.46-20.58,6.49-41.18,6.55-61.76-.01-1.91-.61-2.59-.31-2.95,1.76-1.88,10.9-3.91,21.77-5.94,32.9Z"/><path class="cls-1" d="M168.69,37.42c19.99,0,39.98.05,59.97-.06,2.86-.02,3.85.64,3.84,3.7-.11,36.29.16,72.58-.2,108.86-.14,14.35-5.47,27.16-14.78,38.25-9.67,11.51-21.87,18.78-36.59,21.59-19.81,3.78-37.57-.91-53.13-13.7-11.62-9.55-18.65-21.87-21.62-36.52-.72-3.52-1.23-7.08-1.23-10.71.03-35.79.06-71.58-.07-107.37-.01-3.37.95-4.14,4.2-4.11,19.86.15,39.73.07,59.6.07ZM140.33,156.57c-.39,5.68,5.47,9.63,11.02,7,4.72-2.24,9.36-4.67,13.88-7.29,2.43-1.41,4.33-1.56,6.83-.07,4.37,2.61,9.03,4.75,13.53,7.15,2.93,1.56,5.78,1.57,8.42-.45,2.61-2,3.42-4.71,2.81-7.97-.98-5.26-1.66-10.57-2.77-15.8-.46-2.18.24-3.46,1.71-4.85,4-3.76,7.93-7.58,11.8-11.47,2.18-2.19,3.02-4.83,1.9-7.86-1.1-2.97-3.27-4.57-6.39-5.01-5.18-.73-10.35-1.63-15.55-2.19-2.53-.27-3.95-1.32-4.99-3.63-2.08-4.65-4.48-9.15-6.72-13.73-1.49-3.06-3.81-5-7.28-4.93-3.3.06-5.52,1.94-6.94,4.88-2.22,4.59-4.66,9.08-6.7,13.74-1.1,2.52-2.74,3.42-5.35,3.7-4.83.52-9.61,1.48-14.43,2.04-3.57.41-6.18,1.92-7.31,5.41-1.09,3.38.31,6.02,2.74,8.33,3.79,3.61,7.44,7.38,11.29,10.92,1.47,1.35,1.86,2.62,1.48,4.56-1.1,5.74-1.99,11.52-3,17.52Z"/><path class="cls-2" d="M140.33,156.57c1.01-6,1.9-11.78,3-17.52.37-1.94-.02-3.21-1.48-4.56-3.85-3.54-7.5-7.31-11.29-10.92-2.43-2.32-3.83-4.95-2.74-8.33,1.13-3.48,3.74-4.99,7.31-5.41,4.83-.56,9.61-1.52,14.43-2.04,2.61-.28,4.24-1.18,5.35-3.7,2.04-4.67,4.48-9.16,6.7-13.74,1.42-2.94,3.64-4.82,6.94-4.88,3.48-.07,5.79,1.87,7.28,4.93,2.23,4.58,4.63,9.09,6.72,13.73,1.04,2.31,2.46,3.36,4.99,3.63,5.2.56,10.36,1.46,15.55,2.19,3.12.44,5.3,2.03,6.39,5.01,1.12,3.03.27,5.68-1.9,7.86-3.87,3.88-7.81,7.71-11.8,11.47-1.47,1.38-2.17,2.67-1.71,4.85,1.1,5.23,1.78,10.55,2.77,15.8.61,3.26-.2,5.97-2.81,7.97-2.64,2.02-5.49,2.01-8.42.45-4.5-2.4-9.16-4.54-13.53-7.15-2.5-1.49-4.41-1.34-6.83.07-4.51,2.62-9.16,5.05-13.88,7.29-5.55,2.64-11.42-1.32-11.02-7ZM186.19,122.7c-9.16.23-14.95-3.66-17.08-12.77-2.85,3.66-3.32,7.74-6.43,10.08-3.2,2.4-7.43,1.34-11.67,3.15,8.02,4.78,9.97,11.37,6.92,20.01,7.29-5.7,14.24-5.68,21.57-.09-3.28-8.75-.92-15.21,6.69-20.36Z"/><path class="cls-1" d="M186.19,122.7c-7.61,5.15-9.97,11.61-6.69,20.36-7.33-5.59-14.28-5.6-21.57.09,3.05-8.64,1.1-15.23-6.92-20.01,4.24-1.8,8.46-.74,11.67-3.15,3.11-2.34,3.58-6.41,6.43-10.08,2.14,9.11,7.92,13,17.08,12.77Z"/></g></svg>