<?xml version="1.0" encoding="UTF-8"?><svg id="Capa_2" xmlns="http://www.w3.org/2000/svg" viewBox="0 0 344.69 383.11"><defs><style>.cls-1{fill:#050589;}.cls-1,.cls-2{stroke-width:0px;}.cls-2{fill:#fef59b;}</style></defs><g id="Capa_1-2"><path class="cls-1" d="M164.91,0c5.16,1.69,10.61,1.66,15.89,2.75,50.04,10.34,85.19,39.27,105.96,85.59,8.38,18.69,13.87,38.57,22.24,57.34,10.99,24.64,22.58,49.01,33.65,73.61,5.61,12.47-.79,26.67-13.54,30.3-4.14,1.18-8.41.77-12.64.84-6.29.11-5.35-1.01-5.53,5.59-.32,11.96,1,23.93-.06,35.89-.25,2.85-.5,5.72-1.09,8.52-3.23,15.27-13.09,23.34-29.76,25.16-8.58.93-17.2.09-25.76,1.19-18.17,2.33-26.04,10.38-28.04,28.67-.65,5.97-.82,11.93-.91,17.92-.1,7.17-2.66,9.75-9.68,9.75-52.62,0-105.24,0-157.86,0-6.86,0-9.53-2.61-9.55-9.48-.07-33.52-3.24-66.65-12.03-99.12-6.03-22.27-15.2-43.38-23.55-64.8C5.66,191.74.46,173.38.04,153.92-1.59,77.71,46.78,19.57,117.32,3.79c5.82-1.3,11.78-1.97,17.67-2.97.78-.13,1.82.33,2.23-.82h27.69ZM136.73,368.11c23.31,0,46.63-.04,69.94.05,2.7.01,4.01-.36,3.91-3.54-.12-3.71.33-7.46.76-11.17,2.93-24.88,16.43-38.39,41.27-41.62,8.56-1.11,17.18-.35,25.75-1.26,11.36-1.2,15.24-4.5,17.08-15.52.37-2.2.48-4.46.49-6.7.07-14.71.04-29.42.12-44.13.03-5.99,2.75-8.71,8.68-8.78,5.48-.06,10.97.01,16.46-.02,7.56-.05,10.34-4.4,7.18-11.27-5.5-11.97-11.1-23.9-16.57-35.89-12.11-26.58-24.37-53.08-33.66-80.85-10.78-32.23-29.82-58.47-59.92-74.95-45.29-24.78-91.38-23.76-136.3.71C29.12,61.95,9.71,117.41,16.26,167.58c2.14,16.41,7.94,31.85,14.5,46.91,20.97,48.1,32.17,98.25,32.34,150.77,0,2.76,1.18,2.89,3.32,2.89,23.44-.05,46.88-.03,70.31-.03Z"/><path class="cls-2" d="M60.11,150.05c.48-52.58,38.61-90.2,89.74-90.14,51.79.06,89.47,37.68,89.77,90.07.27,47.93-38.3,89.08-89.87,89.16-49.73.08-89.45-40.03-89.64-89.1ZM149.67,186.7c19.37-.61,34.41-8.84,44.97-25.14,1.75-2.7,2.37-5.48.78-8.45-3.03-5.64-9.85-5.18-13.77.91-15.07,23.37-48.52,23.38-63.53.01-3.11-4.84-7.31-6.2-11.24-3.63-3.96,2.58-4.52,6.87-1.31,11.77,10.41,15.87,25.29,23.75,44.11,24.53ZM164.92,122.72c0,1.49-.11,2.99.02,4.48.34,3.91,3.27,6.7,7.06,6.86,4.01.17,7.39-2.48,7.75-6.48.28-3.08.27-6.23-.01-9.32-.36-3.87-3.6-6.57-7.36-6.57-3.92,0-7.04,2.86-7.42,6.93-.13,1.36-.02,2.73-.03,4.1ZM120,122.9s-.02,0-.03,0c0,1.37-.08,2.74.01,4.1.26,3.83,2.87,6.63,6.47,7.01,3.91.42,7.36-1.7,8.11-5.54.74-3.77.83-7.69-.12-11.46-.88-3.47-4.16-5.59-7.6-5.3-3.71.31-6.46,2.96-6.82,6.72-.14,1.48-.02,2.98-.02,4.48Z"/><path class="cls-1" d="M149.67,186.7c-18.82-.78-33.7-8.66-44.11-24.53-3.21-4.89-2.64-9.18,1.31-11.77,3.93-2.57,8.13-1.21,11.24,3.63,15.01,23.37,48.46,23.36,63.53-.01,3.92-6.09,10.74-6.54,13.77-.91,1.6,2.97.97,5.75-.78,8.45-10.56,16.3-25.6,24.53-44.97,25.14Z"/><path class="cls-1" d="M164.93,122.72c0-1.37-.1-2.75.03-4.1.38-4.07,3.5-6.93,7.42-6.93,3.76,0,7.01,2.7,7.36,6.57.28,3.08.29,6.23.01,9.32-.36,4-3.75,6.65-7.75,6.48-3.79-.16-6.72-2.95-7.06-6.86-.13-1.48-.02-2.98-.02-4.48Z"/><path class="cls-1" d="M120,122.9c0-1.49-.12-3,.02-4.48.36-3.75,3.11-6.4,6.82-6.72,3.44-.29,6.72,1.83,7.6,5.3.96,3.77.86,7.69.12,11.46-.75,3.84-4.2,5.96-8.11,5.54-3.6-.38-6.22-3.18-6.47-7.01-.09-1.36-.01-2.74-.01-4.1.01,0,.02,0,.03,0Z"/></g></svg>