<?xml version="1.0" encoding="UTF-8"?><svg id="Capa_1" xmlns="http://www.w3.org/2000/svg" viewBox="0 0 216 32"><defs><style>.cls-1{fill:#000;stroke-width:0px;}</style></defs><path class="cls-1" d="M.2,24.2l4.4-3.3c.3.6.7,1.2,1.2,1.8.5.6,1,1.1,1.7,1.6.6.5,1.3.8,2,1.1.7.3,1.4.4,2.1.4s1.7-.2,2.4-.6,1-1.1,1-1.9-.3-1.5-.9-2.3c-.6-.7-1.3-1.5-2.2-2.2-.9-.8-1.8-1.6-2.9-2.4-1-.8-2-1.7-2.9-2.6-.9-1-1.6-2-2.2-3-.6-1.1-.9-2.3-.9-3.6s.2-2.1.7-3c.5-.9,1.1-1.7,1.8-2.3.8-.6,1.7-1.1,2.7-1.5C9.2.2,10.3,0,11.4,0s1.8.1,2.8.3c1,.2,1.9.5,2.7,1,.9.4,1.6,1,2.1,1.7.6.7.8,1.5.8,2.4s-.2,1.3-.5,1.9c-.3.6-.8,1.2-1.6,1.7-.7-1.4-1.6-2.3-2.6-2.8s-1.9-.7-2.9-.7-1.8.2-2.5.7c-.7.4-1,1-1,1.8s.3,1.2.9,1.8c.6.6,1.3,1.3,2.2,2s1.9,1.4,2.9,2.2c1,.8,2,1.6,2.9,2.6.9.9,1.6,1.9,2.2,3s.9,2.3.9,3.6-.2,2.1-.6,3.1-1,1.9-1.8,2.7-1.7,1.4-2.8,1.8c-1.1.5-2.4.7-3.8.7s-2.5-.2-3.6-.5c-1.1-.3-2.2-.8-3.2-1.4s-1.9-1.4-2.7-2.3-1.5-1.9-2-3v-.1Z"/><path class="cls-1" d="M24.4,30.9V5.7c0-1.7.5-3,1.4-3.9,1-.9,2.2-1.4,3.6-1.4h12.5v5.4h-11.7v7.1h11.7c0,.7-.1,1.3-.3,2-.2.6-.4,1.2-.8,1.7-.3.5-.8.9-1.4,1.2s-1.3.5-2.2.5h-6.9v7.1h11.7v5.4h-17.5l-.1.1Z"/><path class="cls-1" d="M46.3,30.9V5.8c0-1.9.4-3.3,1.3-4.1.9-.8,2.3-1.3,4.1-1.3l13,19.4V.4h5.9v30.5h-5.5l-13-19.5v19.5h-5.9.1Z"/><path class="cls-1" d="M80.1.4h5.7c1.9,0,3.7.4,5.4,1.2,1.7.8,3.1,1.8,4.3,3.1,1.2,1.3,2.2,2.9,2.9,4.7.7,1.8,1,3.8,1,5.9,0,5-1.5,8.9-4.4,11.5-2.9,2.7-7.1,4-12.6,4h-7.4V5.6c0-3.5,1.7-5.2,5.1-5.2ZM80.9,5.9v19.6h3.4c1.4,0,2.7-.2,3.8-.7,1.1-.5,2.1-1.2,2.9-2.1s1.4-2,1.9-3.2c.4-1.3.7-2.7.7-4.3s-.2-2.7-.7-3.8c-.4-1.2-1-2.1-1.8-3-.8-.8-1.7-1.4-2.9-1.9-1.1-.4-2.4-.7-3.8-.7h-3.4l-.1.1Z"/><path class="cls-1" d="M100.3,30.9l10.2-26.4c.5-1.4,1.2-2.4,2.2-3.1,1-.7,2.1-1,3.3-1s1.1,0,1.8.2l11.7,30.3h-6l-2.4-6.2h-2.1c-1.9,0-3.4.2-4.4.7s-1.5,1.1-1.3,1.9c-.9-.4-1.6-.9-2.1-1.6-.5-.6-.7-1.4-.7-2.4s.2-1.1.5-1.6.8-.9,1.3-1.3c.6-.3,1.2-.6,2-.8.8-.2,1.6-.3,2.5-.3h2.6l-4.3-10.8-8.6,22.2h-6l-.2.2Z"/><path class="cls-1" d="M150.3.4h15.3l-12.5,25h11.8v5.5h-21.5l12.9-25h-6.1c-1.1,0-2,.1-2.8.3-.8.2-1.5.9-2.2,1.9-.7-1.1-1.1-2.1-1.2-3,0-.9.2-1.7.7-2.4s1.2-1.2,2.2-1.6,2.1-.6,3.3-.6l.1-.1Z"/><path class="cls-1" d="M169.6,30.9V5.7c0-1.7.5-3,1.4-3.9,1-.9,2.2-1.4,3.6-1.4h12.5v5.4h-11.7v7.1h11.7c0,.7-.1,1.3-.3,2-.2.6-.4,1.2-.8,1.7-.3.5-.8.9-1.4,1.2-.6.3-1.3.5-2.2.5h-6.9v7.1h11.7v5.4h-17.5l-.1.1Z"/><path class="cls-1" d="M191.5,30.9V5.8c0-1.9.4-3.3,1.3-4.1.9-.8,2.3-1.3,4.1-1.3l13,19.4V.4h5.9v30.5h-5.5l-13-19.5v19.5h-5.9.1Z"/></svg>