<svg width="216" height="32" viewBox="0 0 216 32" fill="none" xmlns="http://www.w3.org/2000/svg">
<path d="M0.165039 24.2444L4.51772 20.9364C4.80789 21.5457 5.19964 22.1406 5.69294 22.721C6.18624 23.3013 6.73758 23.8382 7.34695 24.3315C7.98535 24.7957 8.65276 25.173 9.34919 25.4632C10.0746 25.7533 10.7856 25.8984 11.482 25.8984C12.4106 25.8984 13.1941 25.6953 13.8324 25.289C14.4999 24.8538 14.8336 24.2154 14.8336 23.3739C14.8336 22.5904 14.5434 21.8359 13.963 21.1105C13.3827 20.385 12.6427 19.6451 11.7432 18.8906C10.8726 18.1071 9.91504 17.3091 8.87039 16.4966C7.85477 15.6841 6.89718 14.8136 5.99763 13.885C5.12709 12.9274 4.40164 11.9118 3.82129 10.8382C3.24093 9.73549 2.95075 8.54576 2.95075 7.26897C2.95075 6.16629 3.18289 5.17969 3.64718 4.30915C4.11147 3.4096 4.72084 2.64062 5.4753 2.00223C6.25879 1.36384 7.15834 0.870535 8.17396 0.522322C9.18959 0.174107 10.2632 0 11.3949 0C12.2655 0 13.194 0.101563 14.1807 0.304689C15.1673 0.507813 16.0813 0.827008 16.9228 1.26228C17.7934 1.69754 18.5043 2.26339 19.0557 2.95982C19.607 3.62723 19.8827 4.43973 19.8827 5.39732C19.8827 6.06473 19.7086 6.70312 19.3603 7.3125C19.0411 7.92187 18.5188 8.47321 17.7934 8.96651C17.0679 7.57366 16.1974 6.64509 15.1818 6.1808C14.1952 5.6875 13.2376 5.44085 12.309 5.44085C11.3514 5.44085 10.5244 5.65848 9.82798 6.09375C9.16057 6.52902 8.82687 7.12388 8.82687 7.87834C8.82687 8.4587 9.11704 9.06808 9.6974 9.70647C10.2778 10.3158 11.0032 10.9687 11.8737 11.6652C12.7733 12.3616 13.7309 13.1016 14.7465 13.885C15.7911 14.6685 16.7487 15.5245 17.6193 16.4531C18.5188 17.3817 19.2588 18.3973 19.8391 19.5C20.4195 20.6027 20.7097 21.8069 20.7097 23.1127C20.7097 24.1864 20.5065 25.231 20.1003 26.2466C19.694 27.2623 19.0992 28.1618 18.3157 28.9453C17.5612 29.6998 16.6182 30.3091 15.4865 30.7734C14.3838 31.2377 13.107 31.4698 11.6561 31.4698C10.4083 31.4698 9.2041 31.2957 8.04338 30.9475C6.91169 30.5993 5.85254 30.1205 4.86593 29.5111C3.87932 28.8728 2.97977 28.1038 2.16727 27.2042C1.38379 26.3047 0.716378 25.3181 0.165039 24.2444Z" fill="white"/>
<path d="M24.4091 30.904V5.702C24.4091 4.01897 24.8734 2.72768 25.802 1.82812C26.7596 0.899553 27.9638 0.435267 29.4147 0.435267H41.9504V5.87611H30.2852V12.971H41.9504C41.9214 13.6384 41.8198 14.3058 41.6457 14.9732C41.4716 15.6116 41.1959 16.192 40.8187 16.7143C40.4705 17.2076 39.9917 17.6138 39.3823 17.933C38.7729 18.2522 38.033 18.4118 37.1624 18.4118H30.2852V25.4632H41.9504V30.904H24.4091Z" fill="white"/>
<path d="M46.3 30.904V5.78906C46.3 3.87388 46.7498 2.51004 47.6493 1.69755C48.5489 0.856027 49.9272 0.435267 51.7844 0.435267L64.7989 19.8047V0.435267H70.675V30.904H65.1471L52.1761 11.404V30.904H46.3Z" fill="white"/>
<path d="M80.1271 0.435267H85.8291C87.7443 0.435267 89.5289 0.827008 91.1829 1.61049C92.8369 2.36495 94.2588 3.4096 95.4485 4.74442C96.6673 6.07924 97.6249 7.66071 98.3213 9.48884C99.0177 11.2879 99.3659 13.2466 99.3659 15.3649C99.3659 20.385 97.9005 24.2299 94.9697 26.8995C92.0679 29.5692 87.8749 30.904 82.3905 30.904H75.0345V5.61495C75.0345 2.16183 76.732 0.435267 80.1271 0.435267ZM80.9106 5.87611V25.4632H84.3057C85.6985 25.4632 86.9608 25.231 88.0925 24.7667C89.2242 24.2734 90.1818 23.577 90.9653 22.6774C91.7778 21.7779 92.4016 20.7042 92.8369 19.4565C93.2722 18.1797 93.4898 16.7578 93.4898 15.1908C93.4898 13.769 93.2722 12.4922 92.8369 11.3605C92.4307 10.1998 91.8213 9.21317 91.0088 8.40067C90.2253 7.58817 89.2677 6.96428 88.136 6.52902C87.0043 6.09375 85.7421 5.87611 84.3492 5.87611H80.9106Z" fill="white"/>
<path d="M100.263 30.904L110.492 4.48326C111.014 3.0904 111.74 2.06027 112.668 1.39286C113.626 0.725446 114.728 0.391741 115.976 0.391741C116.469 0.391741 117.079 0.464286 117.804 0.609375L129.469 30.904H123.463L121.112 24.6797H119.023C117.108 24.6797 115.628 24.9263 114.583 25.4196C113.539 25.8839 113.089 26.5223 113.234 27.3348C112.305 26.9286 111.594 26.4062 111.101 25.7678C110.608 25.1295 110.361 24.346 110.361 23.4174C110.361 22.837 110.521 22.3147 110.84 21.8504C111.159 21.3571 111.594 20.9364 112.146 20.5882C112.697 20.2399 113.35 19.9788 114.104 19.8047C114.859 19.6016 115.686 19.5 116.586 19.5H119.154L114.888 8.66183L106.27 30.904H100.263Z" fill="white"/>
<path d="M150.338 0.435267H165.66L153.167 25.4196H164.92V30.904H143.417L156.345 5.87611H150.295C149.221 5.87611 148.292 5.99218 147.509 6.22433C146.725 6.45647 146 7.08035 145.333 8.09598C144.607 7.02232 144.215 6.0212 144.157 5.09263C144.128 4.16406 144.36 3.35156 144.854 2.65513C145.376 1.9587 146.102 1.42187 147.03 1.04464C147.988 0.638392 149.09 0.435267 150.338 0.435267Z" fill="white"/>
<path d="M169.569 30.904V5.702C169.569 4.01897 170.033 2.72768 170.962 1.82812C171.92 0.899553 173.124 0.435267 174.575 0.435267H187.11V5.87611H175.445V12.971H187.11C187.081 13.6384 186.98 14.3058 186.806 14.9732C186.632 15.6116 186.356 16.192 185.979 16.7143C185.631 17.2076 185.152 17.6138 184.542 17.933C183.933 18.2522 183.193 18.4118 182.322 18.4118H175.445V25.4632H187.11V30.904H169.569Z" fill="white"/>
<path d="M191.46 30.904V5.78906C191.46 3.87388 191.91 2.51004 192.809 1.69755C193.709 0.856027 195.087 0.435267 196.944 0.435267L209.959 19.8047V0.435267H215.835V30.904H210.307L197.336 11.404V30.904H191.46Z" fill="white"/>
</svg>
